<svg width="21" height="21" viewBox="0 0 21 21" fill="none" xmlns="http://www.w3.org/2000/svg">
<path d="M18.9902 1.91797C18.4587 1.40137 17.8298 1.0682 17.1035 0.918457C16.3773 0.76123 15.55 0.682617 14.6216 0.682617H6.3335C5.42757 0.682617 4.61149 0.76123 3.88525 0.918457C3.15902 1.0682 2.5376 1.40137 2.021 1.91797C1.49691 2.44206 1.15999 3.06722 1.01025 3.79346C0.868001 4.51221 0.796875 5.3208 0.796875 6.21924V14.4287C0.796875 15.3571 0.868001 16.1882 1.01025 16.9219C1.15251 17.6481 1.48942 18.2695 2.021 18.7861C2.5376 19.3027 3.15902 19.6359 3.88525 19.7856C4.61898 19.9429 5.45003 20.0215 6.37842 20.0215H14.6216C15.55 20.0215 16.3773 19.9429 17.1035 19.7856C17.8372 19.6359 18.4661 19.3027 18.9902 18.7861C19.5068 18.262 19.8363 17.6369 19.9785 16.9106C20.1283 16.1844 20.2031 15.3571 20.2031 14.4287V6.27539C20.2031 5.33952 20.1283 4.50846 19.9785 3.78223C19.8363 3.05599 19.5068 2.43457 18.9902 1.91797ZM18.6533 5.9834V14.7207C18.6533 15.2972 18.5972 15.8512 18.4849 16.3828C18.38 16.9069 18.1704 17.3299 17.856 17.6519C17.534 17.9738 17.1073 18.1872 16.5757 18.292C16.0441 18.4043 15.4901 18.4604 14.9136 18.4604H6.09766C5.51367 18.4604 4.95589 18.4043 4.42432 18.292C3.90023 18.1872 3.47721 17.9738 3.15527 17.6519C2.82585 17.3299 2.60872 16.9069 2.50391 16.3828C2.40658 15.8512 2.35791 15.2972 2.35791 14.7207V6.01709C2.35791 5.42562 2.40658 4.8641 2.50391 4.33252C2.60872 3.80094 2.8221 3.37419 3.14404 3.05225C3.47347 2.73031 3.90397 2.51318 4.43555 2.40088C4.97461 2.28857 5.53988 2.23242 6.13135 2.23242H14.9136C15.4901 2.23242 16.0441 2.28857 16.5757 2.40088C17.1073 2.51318 17.534 2.73031 17.856 3.05225C18.1704 3.37419 18.38 3.7972 18.4849 4.32129C18.5972 4.84538 18.6533 5.39941 18.6533 5.9834ZM5.62598 10.3296C5.62598 10.5617 5.70085 10.7526 5.85059 10.9023C6.00781 11.0521 6.20622 11.127 6.4458 11.127H9.70264V14.3838C9.70264 14.6234 9.77751 14.8218 9.92725 14.979C10.077 15.1287 10.2642 15.2036 10.4888 15.2036C10.7358 15.2036 10.9342 15.1287 11.084 14.979C11.2412 14.8293 11.3198 14.6309 11.3198 14.3838V11.127H14.5767C14.8162 11.127 15.0109 11.0521 15.1606 10.9023C15.3104 10.7526 15.3853 10.5617 15.3853 10.3296C15.3853 10.09 15.3104 9.89535 15.1606 9.74561C15.0109 9.58838 14.8162 9.50977 14.5767 9.50977H11.3198V6.26416C11.3198 6.01709 11.2412 5.81868 11.084 5.66895C10.9342 5.51172 10.7358 5.43311 10.4888 5.43311C10.2642 5.43311 10.077 5.51172 9.92725 5.66895C9.77751 5.81868 9.70264 6.01709 9.70264 6.26416V9.50977H6.4458C6.20622 9.50977 6.00781 9.58838 5.85059 9.74561C5.70085 9.89535 5.62598 10.09 5.62598 10.3296Z" fill="black"/>
</svg>
