<svg width="32" height="32" viewBox="0 0 32 32" fill="none" xmlns="http://www.w3.org/2000/svg">
<g clip-path="url(#clip0_175_870)">
<path d="M0.260742 8.97611C0.283359 8.75003 0.317284 8.52395 0.328592 8.29786C0.464292 6.41007 0.701766 4.53358 1.2898 2.72492C1.50466 2.08058 1.90045 1.63972 2.55633 1.48146C3.70978 1.19886 4.86322 0.893644 6.03929 0.712778C7.48675 0.486694 8.94552 0.430174 10.4156 0.486694C12.8808 0.588432 14.9615 1.52668 16.6917 3.25621C17.6642 4.21707 18.388 5.33618 18.8629 6.61355C19.2926 7.75527 19.8241 8.84046 20.6157 9.77871C21.7126 11.09 23.0809 11.983 24.6754 12.5708C27.0614 13.4413 28.8708 14.9899 30.0581 17.2508C30.6462 18.3812 30.9628 19.602 31.0193 20.8794C31.1324 23.4906 30.861 26.0567 30.1712 28.5775C30.1712 28.6001 30.1599 28.6114 30.1599 28.634C29.9564 29.5271 29.4023 30.0584 28.5089 30.3071C27.0049 30.7253 25.4896 30.9966 23.9403 31.1323C23.4315 31.1775 22.9226 31.2114 22.4137 31.2566C22.0518 31.2566 21.69 31.2566 21.3281 31.2566C21.1585 31.234 20.9889 31.2001 20.8192 31.2001C18.1505 31.0644 15.968 29.9679 14.2039 27.9784C13.2653 26.9271 12.7112 25.6723 12.191 24.3837C11.2298 21.9759 9.55617 20.2803 7.15881 19.3194C5.88097 18.8107 4.65967 18.2455 3.608 17.3299C1.91176 15.849 0.792233 14.0291 0.430367 11.7908C0.3399 11.2256 0.317284 10.6378 0.260742 10.0613C0.260742 9.69958 0.260742 9.33785 0.260742 8.97611ZM28.3845 29.0749C28.2036 28.5097 28 28.0462 27.9096 27.5601C27.6834 26.3167 27.4911 25.0732 27.2989 23.8298C27.1406 22.8237 27.0275 21.8063 26.6091 20.8568C25.6027 18.6073 23.9177 17.1151 21.6221 16.2673C18.5237 15.1256 16.3864 13.023 15.2442 9.90305C14.5431 7.98135 13.3331 6.46659 11.5804 5.3927C10.4156 4.68054 9.11515 4.42054 7.79207 4.21707C6.3333 3.99098 4.88584 3.74229 3.43838 3.4936C3.09913 3.43708 2.77119 3.32404 2.43194 3.2336C2.39801 3.33534 2.3754 3.40317 2.35278 3.47099C1.73082 5.85617 1.43681 8.26395 1.5612 10.7283C1.64036 12.2317 2.1153 13.5882 2.97474 14.8204C4.06033 16.369 5.53041 17.3751 7.29451 18.0307C10.2686 19.1385 12.3267 21.1959 13.4802 24.1576C13.7629 24.8811 14.0795 25.6158 14.5092 26.2489C16.0471 28.5323 18.1957 29.8097 20.9889 29.9453C22.6173 30.0244 24.2344 29.8775 25.8401 29.6062C26.6769 29.4705 27.5025 29.2671 28.3845 29.0749ZM4.22996 2.28405C4.22996 2.30666 4.22996 2.32927 4.22996 2.35188C4.29781 2.37449 4.36566 2.4084 4.44482 2.4197C5.93751 2.6684 7.43021 2.90578 8.9229 3.14317C11.4447 3.55012 13.4349 4.81618 14.9955 6.81702C15.7757 7.81179 16.1941 8.97611 16.6917 10.1178C17.472 11.9378 18.7159 13.3847 20.4574 14.3456C21.2942 14.8091 22.2215 15.103 23.0809 15.5438C25.8854 16.9682 27.7286 19.1612 28.3167 22.2924C28.5541 23.5472 28.6672 24.8358 28.8481 26.1019C28.9047 26.5202 29.0291 26.9271 29.1422 27.4019C29.1987 27.2888 29.2213 27.2775 29.2213 27.2549C29.6397 25.175 29.9111 23.0837 29.7867 20.9585C29.7076 19.6359 29.357 18.3925 28.6559 17.2621C27.5703 15.5099 26.0098 14.3456 24.076 13.6447C21.2716 12.6274 19.2813 10.7283 18.0826 7.99265C17.8565 7.47266 17.6868 6.91876 17.4268 6.41007C15.9454 3.56142 13.6611 1.87711 10.393 1.73015C9.17169 1.67363 7.95039 1.77537 6.72909 1.8658C5.88097 1.95623 5.05546 2.1484 4.22996 2.28405Z" fill="#FCF3E6" stroke="#FCF3E6" stroke-width="0.3"/>
<path d="M8.66295 12.0169C8.90043 12.0395 9.11529 12.1638 9.19445 12.4351C9.49977 13.5655 10.2914 14.2099 11.343 14.5942C11.6257 14.6959 11.8067 14.9107 11.7954 15.2272C11.784 15.5211 11.5918 15.7359 11.3091 15.7924C11.2073 15.8151 11.0829 15.8038 10.9925 15.7698C9.73724 15.3516 8.76473 14.6168 8.22193 13.3847C8.13146 13.1812 8.06361 12.9664 8.01838 12.7629C7.92791 12.3673 8.23324 12.0056 8.66295 12.0169Z" fill="#FCF3E6" stroke="#FCF3E6" stroke-width="0.3"/>
<path d="M10.0424 6.88477C10.2799 6.9865 10.6644 7.12215 11.0036 7.31432C12.0101 7.86823 12.7338 8.67082 13.0278 9.80124C13.1409 10.2082 12.9826 10.5473 12.632 10.649C12.2815 10.7508 11.9648 10.5812 11.8518 10.1856C11.5577 9.1456 10.834 8.53517 9.87281 8.16214C9.42048 7.98127 9.27347 7.81171 9.28478 7.47258C9.3074 7.12215 9.55618 6.88477 10.0424 6.88477Z" fill="#FCF3E6" stroke="#FCF3E6" stroke-width="0.3"/>
<path d="M16.1716 17.1602C16.6013 17.1602 16.8162 17.3071 16.8953 17.5784C17.2007 18.6862 17.9583 19.3192 18.9987 19.7036C19.4284 19.8618 19.5867 20.1784 19.451 20.5401C19.3266 20.8905 18.9648 21.0149 18.5464 20.8679C17.3477 20.4271 16.4091 19.7036 15.9002 18.5054C15.8097 18.3019 15.7532 18.0871 15.708 17.8723C15.6288 17.4993 15.9228 17.1602 16.1716 17.1602Z" fill="#FCF3E6" stroke="#FCF3E6" stroke-width="0.3"/>
<path d="M17.6304 23.5698C17.8679 23.5924 18.094 23.7055 18.1732 23.9768C18.4898 25.1072 19.2588 25.7515 20.3218 26.1472C20.7175 26.2941 20.8759 26.6559 20.7402 26.9837C20.6045 27.3115 20.2652 27.4471 19.892 27.3115C18.5011 26.8028 17.4608 25.9324 17.0423 24.4515C16.884 23.9655 17.1554 23.5698 17.6304 23.5698Z" fill="#FCF3E6" stroke="#FCF3E6" stroke-width="0.3"/>
<path d="M4.67085 10.6717C3.98104 10.5134 3.40432 10.0952 3.04246 9.3943C2.95199 9.21343 2.88414 8.99865 2.87283 8.79518C2.83891 8.48997 3.04246 8.25258 3.33647 8.18475C3.59656 8.11693 3.9245 8.22997 4.01497 8.50127C4.18459 9.02126 4.54646 9.31517 5.03272 9.52995C5.31542 9.65429 5.42851 9.95951 5.36066 10.2308C5.2815 10.4908 5.03272 10.6717 4.67085 10.6717Z" fill="#FCF3E6" stroke="#FCF3E6" stroke-width="0.3"/>
<path d="M25.8965 24.1462C25.8965 24.4853 25.7156 24.7227 25.4329 24.7905C25.1502 24.8584 24.8448 24.734 24.7431 24.4401C24.5734 23.954 24.2455 23.6714 23.7932 23.4679C23.42 23.3097 23.3069 22.9819 23.4539 22.6541C23.5896 22.3375 23.9176 22.2019 24.2794 22.3375C25.0258 22.6088 25.5799 23.0723 25.84 23.841C25.8626 23.8975 25.8739 23.954 25.8852 24.0105C25.8965 24.0671 25.8965 24.1123 25.8965 24.1462Z" fill="#FCF3E6" stroke="#FCF3E6" stroke-width="0.3"/>
</g>
<defs>
<clipPath id="clip0_175_870">
<rect width="30.7812" height="30.7812" fill="white" transform="translate(0.260742 0.463867)"/>
</clipPath>
</defs>
</svg>
