<svg width="28" height="13" viewBox="0 0 28 13" fill="none" xmlns="http://www.w3.org/2000/svg">
<path d="M11.4 5.86023C13.0036 4.87999 14.9962 4.87999 16.5999 5.86023M9.87697 2.61091C11.9077 4.75885 11.9077 8.24118 9.87697 10.3891C7.84625 12.537 4.55377 12.537 2.52304 10.3891C0.49232 8.24118 0.49232 4.75885 2.52304 2.61091C4.55376 0.46303 7.84624 0.46303 9.87697 2.61091ZM25.477 2.61091C27.5077 4.75885 27.5077 8.24118 25.477 10.3891C23.4462 12.537 20.1538 12.537 18.1231 10.3891C16.0924 8.24118 16.0924 4.75885 18.1231 2.61091C20.1538 0.46303 23.4462 0.46303 25.477 2.61091Z" stroke="white" stroke-width="2" stroke-linecap="round" stroke-linejoin="round"/>
</svg>
