<svg width="35" height="35" viewBox="0 0 35 35" fill="none" xmlns="http://www.w3.org/2000/svg">
<g clip-path="url(#clip0_175_1052)">
<path d="M-0.05 21.9279L-0.0491685 21.9281C-0.0213347 21.7774 0.00515851 21.6263 0.0316632 21.4751C0.100477 21.0826 0.169367 20.6897 0.261994 20.3022L0.26206 20.3019C0.592877 18.9518 1.25411 17.7402 1.96722 16.5695L1.96726 16.5694C2.43318 15.8076 2.89902 15.046 3.36485 14.2753C4.31927 12.6781 4.73829 10.9172 5.08532 9.10407L5.08538 9.10377C5.36871 7.67026 5.67952 6.24554 6.03609 4.83879C6.28608 3.84613 7.04081 2.76241 8.09388 1.96013C9.14766 1.15732 10.5051 0.632593 11.9636 0.765462L11.9638 0.765484V0.765485C13.679 0.930257 15.0058 1.79124 16.081 3.06839C16.8849 4.01321 17.1608 5.17701 17.4163 6.31834L17.4164 6.31848C17.6743 7.48642 17.9236 8.6588 18.1732 9.83229C18.2861 10.363 18.399 10.8939 18.5127 11.4247L18.5131 11.4261L18.513 11.4261C18.5252 11.4928 18.5457 11.554 18.5791 11.6543C18.5877 11.6801 18.5972 11.7086 18.6077 11.7404C18.8729 11.5256 19.1394 11.3196 19.4029 11.1158C19.9882 10.6633 20.559 10.222 21.0691 9.72168L21.0693 9.72149C21.8534 8.96068 22.5986 8.16299 23.3435 7.36553C23.7524 6.92784 24.1612 6.49022 24.5763 6.05879L24.5765 6.05867C25.5014 5.1041 26.5107 4.25664 27.7049 3.64566C28.8198 3.07405 29.9559 2.92867 30.9867 3.18936C32.0176 3.45009 32.9389 4.11592 33.6257 5.15906L33.6257 5.15914C35.0135 7.2758 35.3253 9.60223 34.8298 12.0617C34.4187 14.1111 34.0259 16.1602 33.6697 18.2183C33.5853 18.717 33.5381 19.2216 33.4906 19.7289C33.4869 19.7682 33.4832 19.8075 33.4795 19.8469C33.4282 20.3932 33.3732 20.9419 33.2676 21.4842M-0.05 21.9279L33.2185 21.4746M-0.05 21.9279V21.9372V21.9405V21.9437V21.947V21.9503V21.9536V21.9569V21.9602V21.9635V21.9668V21.9701V21.9734V21.9767V21.98V21.9833V21.9866V21.9899V21.9932V21.9965V21.9998V22.0031V22.0064V22.0097V22.013V22.0163V22.0196V22.0229V22.0262V22.0295V22.0328V22.0361V22.0394V22.0427V22.046V22.0493V22.0526V22.0559V22.0592V22.0625V22.0658V22.0691V22.0724V22.0757V22.079V22.0823V22.0856V22.0889V22.0922V22.0955V22.0988V22.1021V22.1054V22.1087V22.112V22.1153V22.1187V22.122V22.1253V22.1286V22.1319V22.1352V22.1385V22.1418V22.1451V22.1484V22.1517V22.155V22.1583V22.1616V22.1649V22.1682V22.1716V22.1749V22.1782V22.1815V22.1848V22.1881V22.1914V22.1947V22.198V22.2013V22.2046V22.2079V22.2113V22.2146V22.2179V22.2212V22.2245V22.2278V22.2311V22.2344V22.2377V22.241V22.2443V22.2477V22.251V22.2543V22.2576V22.2609V22.2642V22.2675V22.2708V22.2741V22.2775V22.2808V22.2841V22.2874V22.2907V22.294V22.2973V22.3006V22.304V22.3073V22.3106V22.3139V22.3172V22.3205V22.3238V22.3271V22.3305V22.3338V22.3371V22.3404V22.3437V22.347V22.3503V22.3537V22.357V22.3603V22.3636V22.3669V22.3702V22.3735V22.3769V22.3802V22.3835V22.3868V22.3901V22.3934V22.3968V22.4001V22.4034V22.4067V22.41V22.4133V22.4166V22.42V22.4233V22.4266V22.4299V22.4332V22.4365V22.4399V22.4432V22.4465V22.4498V22.4531V22.4564V22.4598V22.4631V22.4664V22.4697V22.473V22.4764V22.4797V22.483V22.4863V22.4896V22.4929V22.4963V22.4996V22.5029V22.5062V22.5095V22.5129V22.5162V22.5195V22.5228V22.5261V22.5294V22.5328V22.5361V22.5394V22.5427V22.546V22.5494V22.5527V22.556V22.5593V22.5626V22.566V22.5693V22.5726V22.5759V22.5792V22.5826V22.5859V22.5892V22.5925V22.5958V22.5992V22.6025V22.6058V22.6091V22.6124V22.6158V22.6191V22.6224V22.6257V22.629V22.6324V22.6357V22.639V22.6423V22.6456V22.649V22.6523V22.6556V22.6589V22.6622V22.6656V22.6689V22.6722V22.6755V22.6788V22.6822V22.6855V22.6888V22.6921V22.6954V22.6988V22.7021V22.7054V22.7087V22.7121V22.7154V22.7187V22.722V22.7253V22.7287V22.732V22.7353V22.7386V22.7419V22.7453V22.7486V22.7519V22.7552V22.7585V22.7619V22.7652V22.7685V22.7718V22.7752V22.7785V22.7818V22.7851V22.7884V22.7918V22.7951V22.7984V22.8017V22.805V22.8084V22.8117V22.815V22.8183V22.8216V22.825V22.8283V22.8316V22.8349V22.8383V22.8416V22.8449V22.8482V22.8515V22.8549V22.8582V22.8615V22.8648V22.8681V22.8715V22.8748V22.8781V22.8814V22.8847V22.8881V22.8914V22.8947V22.898V22.9014V22.9047V22.908V22.9113V22.9146V22.918V22.9213V22.9246V22.9279V22.9312V22.9346V22.9379V22.9412V22.9445V22.9478V22.9512V22.9545V22.9578V22.9611V22.9644V22.9678V22.9711V22.9744V22.9777V22.981V22.9844V22.9877V22.991V22.9943V22.9976V23.001V23.0043V23.0076V23.0109V23.0142V23.0176V23.0209V23.0242V23.0275V23.0308V23.0341V23.0375V23.0408V23.0441V23.0474V23.0507V23.0541V23.0574V23.0607V23.064V23.0673V23.0707V23.074V23.0773V23.0806V23.0839V23.0872V23.0906V23.0939V23.0972V23.1005V23.1038V23.1071V23.1105V23.1138V23.1171V23.1204V23.1237V23.1271V23.1304V23.1337V23.137V23.1403V23.1436V23.147V23.1503V23.1536V23.1569V23.1602V23.1635V23.1668V23.1702V23.1735V23.1768V23.1801V23.1834V23.1867V23.1901V23.1934V23.1967V23.2V23.2033V23.2066V23.2099V23.2133V23.2166V23.2199V23.2232V23.2265V23.2298V23.2331V23.2365V23.2398V23.2431V23.2464V23.2497V23.253V23.2563V23.2597V23.263V23.2663V23.2696V23.2729V23.2762V23.2795V23.2828V23.2862V23.2895V23.2928V23.2961V23.2994V23.3027V23.306V23.3093V23.3126V23.316V23.3193V23.3226V23.3259V23.3292V23.3325V23.3358V23.3391V23.3424V23.3457V23.3491V23.3524V23.3557V23.359V23.3623V23.3656V23.3689V23.3722V23.3755V23.3788V23.3821V23.3855V23.3888V23.3921V23.3954V23.3987V23.402V23.4053V23.4086V23.4119V23.4152V23.4185V23.4218V23.4251V23.4284V23.4317V23.4351V23.4384V23.4417V23.445V23.4483V23.4516V23.4549V23.4582V23.4615V23.4648V23.4681V23.4714V23.4747V23.478V23.4813V23.4846V23.4879V23.4912V23.4945V23.4978V23.5011V23.5044V23.5077V23.511V23.5143V23.5176V23.5209V23.5242V23.5275V23.5308V23.5341V23.5374V23.5407V23.544V23.5473V23.5506V23.5539V23.5572V23.5605V23.5638V23.5671V23.5704V23.5737V23.577V23.5803V23.5836V23.5869V23.5902V23.5935V23.5968V23.6001V23.6034V23.6067V23.61V23.6133V23.6166V23.6199V23.6232V23.6265V23.6298V23.6331H-0.0508318L-0.0491818 23.6421C-0.0224631 23.788 0.000802089 23.9368 0.0241631 24.0862C0.0638327 24.3399 0.103778 24.5954 0.16138 24.8413M-0.05 21.9279L0.16138 24.8413M33.2676 21.4842L33.2185 21.4746M33.2676 21.4842C33.2676 21.4841 33.2676 21.4841 33.2676 21.4841L33.2185 21.4746M33.2676 21.4842C32.4159 25.9203 30.3364 29.6766 26.7817 32.5686M33.2185 21.4746C32.3688 25.9003 30.295 29.6459 26.7502 32.5298M26.7817 32.5686C26.7818 32.5686 26.7818 32.5686 26.7818 32.5686L26.7502 32.5298M26.7817 32.5686C23.9905 34.8473 20.8396 35.3389 17.418 34.3828L17.4178 34.3827C16.262 34.0549 15.1709 33.5633 14.1355 32.9539M26.7817 32.5686L26.7502 32.5298M26.7502 32.5298L14.1355 32.9539M14.1355 32.9539C14.1355 32.9539 14.1356 32.9539 14.1356 32.9539L14.1608 32.9108L14.1354 32.9538C14.1355 32.9539 14.1355 32.9539 14.1355 32.9539ZM13.6256 32.8427C13.626 32.8427 13.6264 32.8426 13.6267 32.8426L13.6218 32.7929L13.6244 32.8428C13.6248 32.8428 13.6252 32.8427 13.6256 32.8427ZM13.6256 32.8427C11.2645 33.0788 8.92772 32.9882 6.6446 32.2418L6.64451 32.2418C3.01714 31.0476 0.968737 28.4748 0.16138 24.8413M13.6256 32.8427L0.16138 24.8413M14.1151 16.0241C12.5072 17.1668 11.1094 18.5272 10.141 20.2594C8.78883 22.6718 8.82537 25.1113 10.278 27.4058M14.1151 16.0241L30.1214 4.21616C31.0624 4.27965 31.8389 4.69682 32.378 5.44049C32.5712 5.70735 32.6176 6.09689 32.6594 6.44696L32.6703 6.53785C32.8622 8.00704 32.5698 9.37647 31.6928 10.5917C31.0258 11.5168 30.3498 12.4418 29.628 13.3306M14.1151 16.0241L14.1441 16.0649C14.1441 16.0649 14.144 16.0649 14.144 16.0649M14.1151 16.0241L14.144 16.0649M10.278 27.4058C11.7672 29.7275 14.0329 30.8793 17.0112 30.9609M10.278 27.4058L10.3202 27.3791C10.3202 27.379 10.3202 27.379 10.3202 27.3789M10.278 27.4058L10.3201 27.3788C10.3201 27.3789 10.3201 27.3789 10.3202 27.3789M17.0112 30.9609C17.0997 30.9519 17.1996 30.9434 17.3076 30.9343L17.3078 30.9343L17.308 30.9343C17.6346 30.9066 18.0361 30.8726 18.4273 30.7977C22.1 30.1175 24.5484 27.9409 26.0559 24.6125M17.0112 30.9609L17.0126 30.9109C17.0115 30.9109 17.0105 30.9109 17.0094 30.9108M17.0112 30.9609L17.0062 30.9112C17.0072 30.911 17.0083 30.9109 17.0094 30.9108M26.0559 24.6125C26.805 22.9529 27.0425 21.1844 27.1979 19.4069C27.3989 17.1305 28.1754 15.1081 29.628 13.3306M26.0559 24.6125L26.0103 24.5919C26.0103 24.5919 26.0103 24.5919 26.0103 24.592M26.0559 24.6125L26.0103 24.592M29.628 13.3306L29.5892 13.2991M29.628 13.3306L29.5893 13.299C29.5893 13.299 29.5893 13.299 29.5892 13.2991M29.5892 13.2991C30.31 12.4115 30.9853 11.4875 31.6522 10.5625L31.6522 10.5625C32.5211 9.35854 32.8111 8.00217 32.6207 6.54432L32.6207 6.54395C32.617 6.51366 32.6133 6.48307 32.6097 6.45229C32.5906 6.29255 32.5709 6.12732 32.5369 5.96905C32.4964 5.78043 32.4367 5.60681 32.3375 5.46981C31.8076 4.73874 31.0449 4.32858 30.118 4.26605L30.1179 4.26604C29.1031 4.19472 28.2747 4.63969 27.4535 5.17405C26.2716 5.95027 25.2793 6.95292 24.3672 8.02137L24.3671 8.02145C22.3811 10.3382 20.0839 12.2733 17.4666 13.863C16.335 14.5515 15.2306 15.2945 14.144 16.0649M29.5892 13.2991C28.1299 15.0849 27.3499 17.1169 27.1481 19.4025L27.1481 19.4025C26.9928 21.1792 26.7557 22.9405 26.0103 24.592M26.0103 24.592C24.5087 27.9074 22.0727 30.0717 18.4182 30.7485L18.4179 30.7485C18.0296 30.8229 17.6321 30.8566 17.3059 30.8842C17.1984 30.8933 17.0986 30.9018 17.0094 30.9108M17.0094 30.9108C14.0467 30.8289 11.7986 29.6838 10.3202 27.3789M10.3202 27.3789C8.8778 25.1006 8.84112 22.6807 10.1846 20.2838L10.1846 20.2838C11.1483 18.5599 12.5401 17.2047 14.144 16.0649M12.425 31.7359C11.0933 31.8311 9.84587 31.7476 8.61557 31.5104L8.61502 31.5103C7.16694 31.2481 5.80454 30.7876 4.61588 29.9139L4.58627 29.9542L4.61588 29.9139C2.72751 28.5261 1.69179 26.6156 1.28256 24.3497C0.873851 22.0686 1.35476 19.9585 2.52804 17.9722L12.425 31.7359ZM12.425 31.7359C12.3533 31.6706 12.3012 31.6247 12.2489 31.5786C12.2388 31.5697 12.2286 31.5607 12.2183 31.5516L12.2514 31.5141L12.2187 31.552C11.0182 30.5149 10 29.3314 9.22928 27.9379L9.22925 27.9378C7.68662 25.1395 7.60321 22.3365 9.2298 19.5359C10.3033 17.6871 11.7982 16.2401 13.529 15.0219C14.4611 14.3639 15.4196 13.7472 16.3794 13.1295C16.6907 12.9292 17.0021 12.7288 17.3129 12.5269L17.3134 12.5265C17.4107 12.465 17.4588 12.4136 17.4793 12.3577C17.5 12.3014 17.4967 12.2303 17.4656 12.1198L17.4655 12.1197C17.2551 11.366 17.0722 10.6123 16.9076 9.84976C16.7867 9.31297 16.6749 8.77492 16.5631 8.23743C16.3533 7.22792 16.1439 6.22039 15.8758 5.22692C15.6415 4.36821 15.0797 3.59211 14.3678 3.00781C13.6557 2.42349 12.7968 2.0337 11.972 1.9442C10.8042 1.82339 9.69744 2.24175 8.83269 2.89568C7.9672 3.55017 7.34957 4.43652 7.15643 5.24354L7.15642 5.2436C6.80933 6.68527 6.48069 8.12617 6.216 9.5849L12.425 31.7359ZM16.6274 32.846L16.6276 32.8461C18.4757 33.5736 20.2367 33.8255 21.9093 33.5552C23.5816 33.2849 25.1695 32.4919 26.6708 31.1235L26.6709 31.1234C29.5039 28.5462 31.2347 25.3816 32.0093 21.6821C32.0093 21.6821 32.0093 21.6821 32.0093 21.682L32.0582 21.6923C32.1886 21.0648 32.2557 20.4237 32.3229 19.781L32.323 19.7809L32.323 19.7808C32.3782 19.253 32.4335 18.7241 32.5241 18.2007L16.6274 32.846ZM16.6274 32.846C16.087 32.6353 15.5706 32.371 15.0518 32.1054C14.8506 32.0024 14.6491 31.8993 14.4456 31.799C14.446 31.7981 14.4465 31.7971 14.447 31.7962C14.6188 31.8233 14.793 31.8552 14.9681 31.8873C15.3153 31.9508 15.6663 32.0151 16.0111 32.0446L16.0118 32.0446C19.1592 32.2724 21.9045 31.3063 24.2077 29.1838L24.2078 29.1838M16.6274 32.846L24.2078 29.1838M24.2078 29.1838C26.4282 27.1345 27.6387 24.5479 28.0878 21.591L24.2078 29.1838ZM20.5711 14.623L20.5711 14.6234C21.4032 14.7232 21.7003 14.76 22.3545 14.9978C22.3545 14.9978 22.3546 14.9978 22.3546 14.9978L22.3375 15.0448L20.5711 14.623ZM20.5711 14.623H20.5651M20.5711 14.623H20.5651M20.5651 14.623C20.5298 14.623 20.3593 14.614 20.3083 14.6055L20.3085 14.6048L20.3 14.6049C18.0934 14.614 16.2435 15.4361 14.7812 17.0793L14.7812 17.0794C13.2723 18.7782 12.756 20.763 13.3083 22.9652L13.3083 22.9653M20.5651 14.623L13.3083 22.9653M13.3083 22.9653C13.4752 23.6279 13.8078 24.1355 14.2736 24.4643C14.7392 24.7929 15.3336 24.9399 16.0189 24.8893L13.3083 22.9653ZM14.4735 22.7659L14.4735 22.7658C14.1483 21.7258 14.2201 20.6851 14.5915 19.6691C15.4329 17.3698 17.7408 15.8129 20.278 15.766C20.4227 15.7916 20.5677 15.8135 20.7122 15.8353C21.083 15.8912 21.4504 15.9467 21.801 16.0627L21.8022 16.063C22.2093 16.1874 22.4774 16.3894 22.6213 16.6557C22.7654 16.9224 22.7896 17.2623 22.691 17.6719C22.4379 18.6675 21.8591 19.5038 21.2117 20.2913C20.0378 21.7186 18.6284 22.8194 16.9016 23.496L16.9014 23.4961C16.5872 23.6208 16.2361 23.6925 15.8929 23.7194C15.5117 23.7461 15.2134 23.6833 14.9834 23.5294C14.7536 23.3755 14.5854 23.126 14.4735 22.7659Z" fill="#FCF3E6" stroke="#FCF3E6" stroke-width="0.1"/>
</g>
<defs>
<clipPath id="clip0_175_1052">
<rect width="35" height="34" fill="white" transform="translate(0 0.797363)"/>
</clipPath>
</defs>
</svg>
