<svg width="23" height="27" viewBox="0 0 23 27" fill="none" xmlns="http://www.w3.org/2000/svg">
<path d="M5.82861 5.82764H7.37842V3.31201C7.37842 2.75798 7.52441 2.33122 7.81641 2.03174C8.11589 1.73226 8.55387 1.58252 9.13037 1.58252H13.8584V7.15283C13.8584 7.75928 14.0044 8.20475 14.2964 8.48926C14.5884 8.76628 15.0264 8.90479 15.6104 8.90479H20.7427V18.1025C20.7427 18.6566 20.5967 19.0833 20.3047 19.3828C20.0127 19.6823 19.5785 19.832 19.002 19.832H16.8232V21.3818H19.0806C20.1512 21.3818 20.9523 21.1123 21.4839 20.5732C22.0229 20.0267 22.2925 19.2144 22.2925 18.1362V9.354C22.2925 8.76253 22.2214 8.2609 22.0791 7.84912C21.9443 7.42985 21.686 7.02555 21.3042 6.63623L15.7676 1.00977C15.4082 0.650391 15.0189 0.395833 14.5996 0.246094C14.1878 0.0963542 13.7199 0.0214844 13.1958 0.0214844H9.05176C7.98861 0.0214844 7.18376 0.294759 6.63721 0.841309C6.09814 1.38786 5.82861 2.2002 5.82861 3.27832V5.82764ZM15.2734 6.93945V2.37988L20.3271 7.50098H15.835C15.4606 7.50098 15.2734 7.3138 15.2734 6.93945ZM0.685059 23.3696C0.685059 24.4478 0.95459 25.2601 1.49365 25.8066C2.03271 26.3532 2.83382 26.6265 3.89697 26.6265H13.9482C15.0114 26.6265 15.8125 26.3532 16.3516 25.8066C16.8906 25.2601 17.1602 24.4478 17.1602 23.3696V14.958C17.1602 14.3141 17.1003 13.8125 16.9805 13.4531C16.8607 13.0938 16.6024 12.7119 16.2056 12.3076L10.2085 6.20947C9.82666 5.82015 9.45231 5.56559 9.08545 5.4458C8.72607 5.32601 8.26188 5.26611 7.69287 5.26611H3.89697C2.83382 5.26611 2.03271 5.53939 1.49365 6.08594C0.95459 6.625 0.685059 7.43359 0.685059 8.51172V23.3696ZM2.24609 23.3359V8.53418C2.24609 7.98763 2.39209 7.56836 2.68408 7.27637C2.97607 6.97689 3.40658 6.82715 3.97559 6.82715H7.61426V13.0601C7.61426 13.7114 7.77523 14.1943 8.09717 14.5088C8.41911 14.8232 8.89827 14.9805 9.53467 14.9805H15.6104V23.3359C15.6104 23.8975 15.4606 24.3242 15.1611 24.6162C14.8691 24.9157 14.4349 25.0654 13.8584 25.0654H3.96436C3.39535 25.0654 2.96484 24.9157 2.67285 24.6162C2.38835 24.3242 2.24609 23.8975 2.24609 23.3359ZM9.70312 13.5317C9.486 13.5317 9.32503 13.4831 9.22021 13.3857C9.12288 13.2809 9.07422 13.1162 9.07422 12.8916V7.20898L15.2959 13.5317H9.70312Z" fill="black"/>
</svg>
