<svg width="39" height="40" viewBox="0 0 39 40" fill="none" xmlns="http://www.w3.org/2000/svg">
<path d="M5.11111 11.6835L9.3341 12.3874C9.71253 12.4504 10.0955 12.4821 10.4792 12.4821C14.326 12.4821 17.4444 9.36368 17.4444 5.51687L13.3333 7.57243V1.40576L12.923 1.41582C8.5726 1.62965 5.11111 5.22458 5.11111 9.62798V11.6835ZM5.11111 11.6835V12.9981C5.11111 14.8115 5.71058 16.574 6.8162 18.0113L9.22222 21.1391M8.19444 21.9613H5.59636C4.03919 21.9613 2.61566 22.8411 1.91927 24.2339L1 26.0724M6.75556 28.128H5.59636C4.03919 28.128 2.61566 29.0078 1.91927 30.4006L1 32.2391M12.3056 34.2947H9.70747C8.1503 34.2947 6.72677 35.1744 6.03038 36.5672L5.11111 38.4058M30.8056 21.9613H33.4036C34.9608 21.9613 36.3843 22.8411 37.0807 24.2339L38 26.0724M32.2444 28.128H33.4036C34.9608 28.128 36.3843 29.0078 37.0807 30.4006L38 32.2391M26.6944 34.2947H29.2925C30.8497 34.2947 32.2732 35.1744 32.9696 36.5672L33.8889 38.4058M33.8889 11.6835V12.9981C33.8889 14.8115 33.2894 16.574 32.1838 18.0113L29.7778 21.1391M33.8889 11.6835L29.6659 12.3874C29.2875 12.4504 28.9045 12.4821 28.5208 12.4821C24.674 12.4821 21.5556 9.36368 21.5556 5.51687L25.6667 7.57243V1.40576L26.077 1.41582C30.4274 1.62965 33.8889 5.22458 33.8889 9.62798V11.6835ZM16.4167 17.028V16.8224M22.5833 17.028V16.8224M11.8748 33.9301L13.5903 34.937C17.239 37.0787 21.761 37.0787 25.4097 34.937L27.1252 33.9301C29.7983 32.3611 31.6922 29.7443 32.3472 26.7148C32.8786 24.257 31.317 21.8337 28.8592 21.3023L28.7121 21.273L26.4375 20.9335C21.8376 20.2521 17.1624 20.2521 12.5625 20.9335L10.4358 21.2486C7.94834 21.6171 6.23059 23.9324 6.5991 26.4198C6.61375 26.5187 6.63165 26.6171 6.65278 26.7148C7.30781 29.7443 9.20166 32.3611 11.8748 33.9301Z" stroke="#FCF3E6" stroke-width="1.3" stroke-linecap="round"/>
</svg>
