<svg width="27" height="27" viewBox="0 0 27 27" fill="none" xmlns="http://www.w3.org/2000/svg">
<path d="M27 13.5001C27 6.04422 20.985 6.49328e-05 13.565 6.49328e-05C6.1451 6.49328e-05 0.13006 6.04422 0.13006 13.5001C0.13006 20.2383 5.04304 25.8233 11.4658 26.8361V17.4024H8.05459V13.5001H11.4658V10.5258C11.4658 7.14241 13.4716 5.2735 16.5404 5.2735C18.0103 5.2735 19.5478 5.53717 19.5478 5.53717V8.85944H17.8537C16.1847 8.85944 15.6642 9.90007 15.6642 10.9677V13.5001H19.3904L18.7947 17.4024H15.6642V26.8361C22.087 25.8233 27 20.2383 27 13.5001Z" fill="#1877F2"/>
</svg>
