<svg width="9" height="17" viewBox="0 0 9 17" fill="none" xmlns="http://www.w3.org/2000/svg">
<path d="M7.3451 5.69426L1.9901 0.339258C1.77151 0.121965 1.47581 0 1.1676 0C0.859381 0 0.563688 0.121965 0.345098 0.339258C0.235748 0.447715 0.148955 0.576749 0.089725 0.718918C0.0304949 0.861088 0 1.01358 0 1.16759C0 1.32161 0.0304949 1.4741 0.089725 1.61626C0.148955 1.75843 0.235748 1.88747 0.345098 1.99592L5.71177 7.33926C5.82112 7.44772 5.90791 7.57675 5.96714 7.71892C6.02637 7.86109 6.05686 8.01358 6.05686 8.16759C6.05686 8.32161 6.02637 8.4741 5.96714 8.61627C5.90791 8.75843 5.82112 8.88747 5.71177 8.99593L0.345098 14.3393C0.12541 14.5574 0.00137657 14.8539 0.000282605 15.1635C-0.000811357 15.4731 0.121125 15.7704 0.339266 15.9901C0.557406 16.2098 0.853882 16.3338 1.16347 16.3349C1.47306 16.336 1.77041 16.2141 1.9901 15.9959L7.3451 10.6409C8.00053 9.98467 8.36869 9.0951 8.36869 8.16759C8.36869 7.24009 8.00053 6.35051 7.3451 5.69426Z" fill="currentColor"/>
</svg>
