<svg width="33" height="33" viewBox="0 0 33 33" fill="none" xmlns="http://www.w3.org/2000/svg">
<path d="M1.26074 32.042L22.1477 11.1536M10.9385 22.3636L11.2983 22.0732C11.6473 21.7704 11.9635 21.4311 12.2413 21.0607C14.4 18.1823 13.8167 14.0988 10.9385 11.94L10.5787 12.2304C10.2296 12.5331 9.9134 12.8725 9.63563 13.2429C7.47693 16.1213 8.06024 20.2048 10.9385 22.3636ZM10.9385 22.3636L11.2289 22.7235C11.5316 23.0726 11.871 23.3888 12.2414 23.6666C15.1196 25.8253 19.2028 25.242 21.3614 22.3636L21.071 22.0037C20.7682 21.6546 20.4289 21.3384 20.0585 21.0606C17.1803 18.9019 13.0971 19.4852 10.9385 22.3636ZM16.1499 17.1518L16.5097 16.8614C16.8588 16.5586 17.175 16.2192 17.4528 15.8489C19.6115 12.9705 19.0282 8.88697 16.1499 6.72814L15.7901 7.01853C15.4411 7.32132 15.1249 7.66068 14.8471 8.03106C12.6884 10.9095 13.2717 14.993 16.1499 17.1518ZM16.1499 17.1518L16.4403 17.5116C16.7431 17.8607 17.0825 18.177 17.4528 18.4548C20.331 20.6135 24.4142 20.0302 26.5729 17.1518L26.2825 16.7919C25.9797 16.4428 25.6403 16.1266 25.27 15.8488C22.3917 13.69 18.3086 14.2734 16.1499 17.1518ZM21.3614 11.94L21.7212 11.6496C22.0703 11.3468 22.3865 11.0074 22.6642 10.637C24.8229 7.75863 24.2396 3.67515 21.3614 1.51632L21.0016 1.80671C20.6525 2.1095 20.3363 2.44886 20.0586 2.81924C17.8999 5.69765 18.4832 9.78114 21.3614 11.94ZM21.3614 11.94L21.6518 12.2998C21.9546 12.6489 22.2939 12.9651 22.6643 13.2429C25.5425 15.4017 29.6257 14.8183 31.7843 11.94L31.4939 11.5801C31.1912 11.231 30.8518 10.9148 30.4814 10.637C27.6032 8.47821 23.52 9.06158 21.3614 11.94ZM5.60363 27.6988L5.96344 27.4084C6.3125 27.1056 6.6287 26.7662 6.90647 26.3958C9.06516 23.5174 8.48186 19.434 5.60363 17.2751L5.24381 17.5655C4.89475 17.8683 4.57856 18.2077 4.30078 18.578C2.14209 21.4565 2.72539 25.5399 5.60363 27.6988ZM5.60363 27.6988L5.89401 28.0586C6.19679 28.4077 6.53615 28.724 6.90653 29.0017C9.78474 31.1605 13.8679 30.5772 16.0266 27.6988L15.7362 27.3389C15.4334 26.9898 15.094 26.6736 14.7237 26.3958C11.8454 24.237 7.76227 24.8204 5.60363 27.6988ZM31.9757 1.32622C32.4845 4.88811 30.0097 8.18802 26.4481 8.69685C25.9898 8.76233 25.5262 8.77869 25.0653 8.74596L24.6055 8.69678C24.0967 5.13496 26.5715 1.83504 30.1331 1.32622C30.7442 1.23892 31.3646 1.23892 31.9757 1.32622Z" stroke="#FCF3E6" stroke-width="1.2" stroke-linecap="round"/>
</svg>
