<svg width="39" height="20" viewBox="0 0 39 20" fill="none" xmlns="http://www.w3.org/2000/svg">
<path d="M32.8615 17.2144C33.0294 15.4079 31.4566 13.5855 29.6394 13.4746C28.769 13.427 27.8834 13.4587 27.013 13.4429C26.4022 13.4429 25.9288 13.221 25.6997 12.603C25.4249 11.8424 25.8677 10.9708 26.677 10.9391C27.9597 10.8916 29.2882 10.8282 30.5404 11.0818C33.2127 11.5888 35.0298 13.8232 35.3352 16.628C35.3505 16.8024 35.381 16.9767 35.4116 17.2461C36.1903 17.2461 36.9691 17.2302 37.7326 17.2461C38.3893 17.2619 38.8321 17.6105 38.9695 18.181C39.168 19.005 38.6336 19.734 37.7937 19.7498C36.8012 19.7815 35.8086 19.7498 34.816 19.7498C31.5635 19.7498 28.2957 19.7181 25.0431 19.7657C23.5161 19.7815 22.2334 19.3695 21.3019 17.975C19.7749 19.5121 17.912 19.8449 15.9116 19.7498C14.7358 19.7023 13.5447 19.7498 12.3689 19.734C11.5443 19.734 10.9946 19.2269 10.9793 18.4821C10.964 17.7531 11.529 17.2302 12.3384 17.2144C13.8196 17.1985 15.316 17.2144 16.7972 17.2144C19.2252 17.1985 20.7522 15.6139 20.7522 13.0943C20.7522 9.59218 20.7522 6.09009 20.7522 2.60385C20.7522 2.382 20.7522 2.176 20.7675 1.95415C20.8133 1.28859 21.2867 0.797348 21.9127 0.765655C22.5388 0.733962 23.0885 1.20936 23.1802 1.89076C23.2107 2.08092 23.1954 2.28692 23.1954 2.47708C23.1954 6.85073 23.1954 11.2085 23.1954 15.5822C23.1954 16.7548 23.623 17.2144 24.7225 17.2144C27.2726 17.2144 29.8227 17.2144 32.3728 17.2144C32.5408 17.2461 32.6935 17.2302 32.8615 17.2144Z" fill="#FCF3E6"/>
<path d="M9.77281 9.14871C9.77281 11.3038 9.77281 13.459 9.77281 15.6141C9.77281 18.2129 8.26106 19.7659 5.74149 19.7659C5.03906 19.7659 4.33663 19.7817 3.6342 19.7659C1.78651 19.7342 0.305307 18.3714 0.0609844 16.4857C-0.0153664 15.8993 -0.0153664 15.2972 0.0151739 14.7108C0.0457142 13.9661 0.54963 13.4748 1.22152 13.4748C1.90867 13.4748 2.41259 13.9661 2.4584 14.7425C2.48894 15.1387 2.4584 15.5349 2.47367 15.931C2.50421 16.7075 2.93178 17.1988 3.68001 17.2304C4.47406 17.2621 5.28338 17.2621 6.07743 17.2304C6.91729 17.1988 7.32958 16.6917 7.32958 15.725C7.32958 11.3355 7.32958 6.94604 7.32958 2.55655C7.32958 2.28716 7.32958 2.00192 7.39066 1.73253C7.51283 1.16206 8.00147 0.781738 8.5512 0.781738C9.10092 0.781738 9.58957 1.14621 9.71173 1.73253C9.77281 1.98608 9.77281 2.23962 9.77281 2.49316C9.77281 4.72753 9.77281 6.9302 9.77281 9.14871Z" fill="#FCF3E6"/>
<path d="M18.2936 13.0624C18.3394 13.6962 18.2173 14.2509 17.6065 14.5678C16.7819 14.9957 15.9268 14.4093 15.8657 13.3793C15.713 11.0657 15.0411 8.92644 13.7737 7.00901C13.453 6.51777 13.0712 6.07406 12.6895 5.63036C12.0939 4.94896 12.0481 4.23587 12.5673 3.69708C13.117 3.14245 13.8195 3.20584 14.4608 3.90309C16.507 6.13745 17.6676 8.81552 18.1409 11.8264C18.2173 12.2384 18.2478 12.6504 18.2936 13.0624Z" fill="#FCF3E6"/>
</svg>
