<svg width="43" height="22" viewBox="0 0 43 22" fill="none" xmlns="http://www.w3.org/2000/svg">
<path d="M1.57211 14.6691L8.50662 21.4844C8.67319 21.6478 8.87138 21.7775 9.08974 21.8659C9.30809 21.9544 9.54229 22 9.77884 22C10.0154 22 10.2496 21.9544 10.4679 21.8659C10.6863 21.7775 10.8845 21.6478 11.0511 21.4844C11.3848 21.1578 11.5721 20.716 11.5721 20.2556C11.5721 19.7951 11.3848 19.3533 11.0511 19.0267L4.67203 12.7692L41.2081 12.7692C41.6834 12.7692 42.1391 12.5855 42.4752 12.2587C42.8112 11.9318 43 11.4884 43 11.0261C43 10.5639 42.8112 10.1205 42.4752 9.79363C42.1391 9.46675 41.6834 9.2831 41.2081 9.2831L4.56452 9.2831L11.0511 2.99071C11.219 2.82867 11.3523 2.63589 11.4433 2.42349C11.5343 2.21108 11.5811 1.98325 11.5811 1.75315C11.5811 1.52305 11.5343 1.29522 11.4433 1.08282C11.3523 0.870412 11.219 0.677627 11.0511 0.515588C10.8845 0.352216 10.6863 0.222543 10.468 0.134051C10.2496 0.0455599 10.0154 9.31091e-07 9.77884 9.10411e-07C9.5423 8.89732e-07 9.30809 0.0455598 9.08974 0.134051C8.87138 0.222543 8.6732 0.352216 8.50662 0.515588L1.57211 7.2786C0.565435 8.25906 -2.72962e-06 9.58813 -2.85076e-06 10.9739C-2.97191e-06 12.3596 0.565434 13.6886 1.57211 14.6691Z" fill="#FCF3E6"/>
</svg>
