<svg width="20" height="21" viewBox="0 0 20 21" fill="none" xmlns="http://www.w3.org/2000/svg">
<path d="M10.0888 2.16137C12.6476 2.16137 12.9507 2.17291 13.957 2.21911C14.8923 2.26145 15.3973 2.42314 15.734 2.55787C16.1792 2.73495 16.5009 2.95053 16.8339 3.29314C17.1705 3.6396 17.3763 3.96681 17.5484 4.42491C17.6793 4.77137 17.8364 5.29491 17.8776 6.25345C17.9225 7.29283 17.9337 7.60464 17.9337 10.2339C17.9337 12.867 17.9225 13.1788 17.8776 14.2143C17.8364 15.1767 17.6793 15.6964 17.5484 16.0429C17.3763 16.501 17.1668 16.832 16.8339 17.1746C16.4972 17.5211 16.1792 17.7328 15.734 17.9099C15.3973 18.0447 14.8885 18.2063 13.957 18.2487C12.9469 18.2949 12.6439 18.3064 10.0888 18.3064C7.5299 18.3064 7.22688 18.2949 6.22054 18.2487C5.28528 18.2063 4.78024 18.0447 4.44355 17.9099C3.99836 17.7328 3.67663 17.5173 3.34368 17.1746C3.00699 16.8282 2.80123 16.501 2.62914 16.0429C2.49821 15.6964 2.34108 15.1729 2.29993 14.2143C2.25504 13.175 2.24382 12.8631 2.24382 10.2339C2.24382 7.60079 2.25504 7.28898 2.29993 6.25345C2.34108 5.29106 2.49821 4.77137 2.62914 4.42491C2.80123 3.96681 3.01073 3.63575 3.34368 3.29314C3.68037 2.94668 3.99836 2.73495 4.44355 2.55787C4.78024 2.42314 5.28902 2.26145 6.22054 2.21911C7.22688 2.17291 7.5299 2.16137 10.0888 2.16137ZM10.0888 0.386719C7.48875 0.386719 7.16328 0.398267 6.14197 0.444462C5.12441 0.490657 4.42484 0.660037 3.81879 0.90256C3.18656 1.15663 2.65159 1.49154 2.12036 2.04203C1.5854 2.58867 1.25993 3.13915 1.01302 3.78588C0.777332 4.41336 0.612727 5.12938 0.567834 6.17646C0.522942 7.23124 0.511719 7.56615 0.511719 10.2416C0.511719 12.917 0.522942 13.2519 0.567834 14.3029C0.612727 15.35 0.777332 16.0698 1.01302 16.6935C1.25993 17.344 1.5854 17.8945 2.12036 18.4412C2.65159 18.9878 3.18656 19.3266 3.81505 19.5768C4.42484 19.8193 5.12067 19.9887 6.13823 20.0349C7.15954 20.0811 7.48501 20.0926 10.085 20.0926C12.685 20.0926 13.0105 20.0811 14.0318 20.0349C15.0494 19.9887 15.749 19.8193 16.355 19.5768C16.9835 19.3266 17.5185 18.9878 18.0497 18.4412C18.5809 17.8945 18.9101 17.344 19.1533 16.6973C19.389 16.0698 19.5536 15.3538 19.5985 14.3067C19.6434 13.2558 19.6546 12.9209 19.6546 10.2454C19.6546 7.57 19.6434 7.23509 19.5985 6.18416C19.5536 5.13708 19.389 4.41721 19.1533 3.79358C18.9176 3.13915 18.5921 2.58867 18.0572 2.04203C17.5259 1.49539 16.991 1.15663 16.3625 0.906409C15.7527 0.663887 15.0569 0.494506 14.0393 0.448312C13.0143 0.398267 12.6888 0.386719 10.0888 0.386719Z" fill="black"/>
<path d="M10.0888 5.17942C7.37278 5.17942 5.16931 7.44681 5.16931 10.2416C5.16931 13.0364 7.37278 15.3038 10.0888 15.3038C12.8048 15.3038 15.0082 13.0364 15.0082 10.2416C15.0082 7.44681 12.8048 5.17942 10.0888 5.17942ZM10.0888 13.5253C8.32674 13.5253 6.89766 12.0547 6.89766 10.2416C6.89766 8.42845 8.32674 6.95792 10.0888 6.95792C11.8508 6.95792 13.2799 8.42845 13.2799 10.2416C13.2799 12.0547 11.8508 13.5253 10.0888 13.5253Z" fill="black"/>
<path d="M16.3513 4.97921C16.3513 5.63363 15.835 6.16102 15.2028 6.16102C14.5668 6.16102 14.0543 5.62978 14.0543 4.97921C14.0543 4.32478 14.5705 3.79739 15.2028 3.79739C15.835 3.79739 16.3513 4.32863 16.3513 4.97921Z" fill="black"/>
</svg>
