<svg width="28" height="33" viewBox="0 0 28 33" fill="none" xmlns="http://www.w3.org/2000/svg">
<path d="M27.4033 23.1518C26.344 21.3167 25.2491 19.4102 24.1542 17.5513C23.8566 17.0508 23.8566 16.6337 24.1423 16.1452C25.1777 14.3935 26.2131 12.5942 27.2009 10.8545L27.7603 9.88928C27.9983 9.47222 28.0579 9.06708 27.8912 8.80493C27.7365 8.53086 27.3676 8.37595 26.8796 8.37595H25.8442C25.0944 8.37595 24.3446 8.37595 23.5948 8.37595C21.9643 8.37595 20.7147 8.37595 19.5245 8.38787H19.5126C19.0723 8.38787 18.7628 8.20913 18.5486 7.82781C17.9892 6.8507 17.4179 5.86167 16.8705 4.89647C16.2516 3.83595 15.6208 2.72776 15.0019 1.6434C14.752 1.20251 14.5259 0.952271 14.2522 0.797363H13.7642C13.4429 0.976104 13.2286 1.26209 13.0144 1.6434C12.4193 2.69201 11.8124 3.74062 11.2173 4.7654C10.646 5.75443 10.0509 6.7792 9.47967 7.79207C9.24164 8.20913 8.9203 8.38787 8.44424 8.38787H8.43234C7.3374 8.37595 6.13536 8.37595 4.67148 8.37595C3.85028 8.37595 3.02907 8.37595 2.20787 8.37595H1.11294H0.993924C0.886811 8.37595 0.767796 8.37595 0.684486 8.39978C0.398851 8.45936 0.184624 8.62619 0.0894127 8.86451C-0.029602 9.13858 0.00610241 9.46031 0.172723 9.77012C1.33907 11.8078 2.60062 14.0003 3.87408 16.1809C4.13591 16.6337 4.13591 17.0389 3.86218 17.5036C2.61252 19.6366 1.35097 21.841 0.220329 23.7953C-0.0177005 24.2123 -0.0653064 24.6056 0.0894127 24.8677C0.244132 25.1299 0.601176 25.2848 1.07723 25.2848H2.3983C3.13619 25.2848 3.86218 25.2848 4.60007 25.2848C6.05205 25.2848 7.23029 25.2848 8.30142 25.2729H8.32523C8.8965 25.2729 9.25354 25.4754 9.52728 25.964C10.3961 27.5012 11.2887 29.0502 12.1575 30.5517C12.455 31.076 12.7645 31.5883 13.062 32.1127C13.0858 32.1484 13.0977 32.1841 13.1215 32.2199C13.1453 32.2556 13.1691 32.3033 13.1929 32.3391C13.4072 32.6846 13.7047 32.8872 14.0141 32.8872C14.3236 32.8872 14.6092 32.6846 14.8115 32.3391C16.085 30.1584 17.3346 27.9897 18.5248 25.8925C18.7628 25.4635 19.0961 25.2729 19.5959 25.2729H19.6078C20.7266 25.2848 21.9167 25.2848 23.4639 25.2848H25.4633H26.8796C27.3795 25.2848 27.7603 25.1299 27.915 24.8558C28.0698 24.5817 28.0103 24.1766 27.7603 23.7476L27.4033 23.1518ZM25.6419 10.1395L25.2253 10.8545L24.9159 11.3907L23.1902 14.3816L22.7736 15.0966L22.3571 14.3816L22.238 14.1671L20.3219 10.8426L19.9054 10.1276H25.6419V10.1395ZM11.5505 7.63716L13.5857 4.0981L14.0022 3.38314L14.4188 4.0981L15.4899 5.957L16.4539 7.63716L16.8705 8.35212H11.1459L11.5505 7.63716ZM2.79104 10.8426L2.37449 10.1276H8.1229L7.70635 10.8426L5.6593 14.3935L5.24275 15.1085L4.8262 14.3935L4.48105 13.7977L2.79104 10.8426ZM2.3864 23.545L2.80295 22.8301L3.12429 22.2819L4.85 19.3029L5.26655 18.588L5.6831 19.3029L6.4448 20.6256L7.70635 22.8301L8.1229 23.545H2.3864ZM16.4658 26.0355L15.4185 27.8586L14.4188 29.5865L14.0022 30.3014L13.5857 29.5865L13.4905 29.4196L11.5267 26.0355L11.1102 25.3205H16.8586L16.4658 26.0355ZM18.2272 23.0088C18.0011 23.402 17.6917 23.5808 17.2394 23.5808H17.2037C16.7872 23.5689 16.323 23.5689 15.7517 23.5689C15.4542 23.5689 15.1686 23.5689 14.871 23.5689C14.5735 23.5689 14.2879 23.5689 13.9903 23.5689C13.7047 23.5689 13.4072 23.5689 13.1215 23.5689C12.824 23.5689 12.5383 23.5689 12.2527 23.5689C11.6457 23.5689 11.1816 23.5689 10.7412 23.5808H10.7293C10.3128 23.5808 10.0152 23.414 9.81291 23.0326C8.87269 21.3882 7.83727 19.5889 6.56381 17.3964C6.42099 17.1581 6.26627 16.7767 6.55191 16.312C7.65874 14.4174 8.75368 12.5108 9.82481 10.64C9.95573 10.4017 10.1223 10.2706 10.289 10.1991C10.4556 10.1276 10.6222 10.1157 10.7531 10.1157H10.765C11.8719 10.1157 12.9668 10.1276 14.0141 10.1276C15.121 10.1276 16.2159 10.1276 17.2751 10.1157H17.287C17.7155 10.1157 18.0011 10.2825 18.2153 10.6519C19.2746 12.5108 20.3695 14.4174 21.4644 16.2882C21.6906 16.6695 21.6906 17.027 21.4644 17.4202C20.1791 19.5889 19.1556 21.3763 18.2272 23.0088ZM19.8934 23.557L20.31 22.842L21.7144 20.4111L22.3571 19.291L22.7736 18.5761L23.1902 19.291L23.7138 20.2086L25.2372 22.8539L25.6538 23.5689H19.8934V23.557Z" fill="#FCF3E6"/>
</svg>
