<svg width="17" height="33" viewBox="0 0 17 33" fill="none" xmlns="http://www.w3.org/2000/svg">
<path d="M16.0718 28.6218V15.9222C16.0718 15.2812 15.8916 14.6531 15.5519 14.1095L13.9342 11.5211C12.526 9.26814 11.6259 6.7353 11.2963 4.09897L10.9416 1.26074H5.81135L5.41895 4.29118C5.08328 6.88344 4.18805 9.37174 2.79529 11.5837L1.20709 14.106C0.863477 14.6517 0.681152 15.2835 0.681152 15.9284V28.6218M16.0718 28.6218C16.0718 30.5107 14.5405 32.042 12.6516 32.042H4.10129C2.2124 32.042 0.681152 30.5107 0.681152 28.6218M16.0718 28.6218V18.3614L15.7188 18.1985C13.6989 17.3421 11.3632 17.6177 9.59256 18.9456L9.23149 19.2164C7.0895 20.8229 4.29566 21.2763 1.75557 20.4296L0.681152 20.0715V28.6218M4.10129 1.26074H12.6516" stroke="#FCF3E6" stroke-width="1.3" stroke-linecap="round"/>
</svg>
