<svg width="34" height="33" viewBox="0 0 34 33" fill="none" xmlns="http://www.w3.org/2000/svg">
<circle cx="17.0007" cy="17.0002" r="2.66667" fill="#37A3DE"/>
<path d="M20.3133 23.2922C21.7069 22.5586 22.8175 21.3832 23.4709 19.9503C24.1243 18.5174 24.2836 16.9081 23.9238 15.375C23.5639 13.8418 22.7053 12.4714 21.4826 11.4788C20.2599 10.4863 18.7424 9.92767 17.168 9.89064C15.5935 9.85361 14.0514 10.3403 12.7834 11.2743C11.5154 12.2082 10.5933 13.5367 10.1618 15.0513C9.73029 16.5659 9.81375 18.1808 10.3991 19.6429C10.9844 21.1049 12.0385 22.3312 13.3961 23.1295" stroke="#37A3DE" stroke-width="1.5" stroke-linecap="round"/>
<path d="M22.3838 27.2254C24.6483 26.0333 26.453 24.1232 27.5148 21.7947C28.5766 19.4663 28.8355 16.8512 28.2507 14.3598C27.666 11.8684 26.2708 9.64153 24.2839 8.02861C22.297 6.41569 19.831 5.50794 17.2726 5.44777C14.7141 5.3876 12.2081 6.17841 10.1476 7.69615C8.08716 9.21388 6.58878 11.3727 5.88757 13.8338C5.18635 16.295 5.32197 18.9194 6.27316 21.2951C7.22434 23.6709 8.93726 25.6638 11.1432 26.961" stroke="#37A3DE" stroke-width="1.5" stroke-linecap="round"/>
<path d="M24.4532 31.158C27.5887 29.5074 30.0876 26.8626 31.5578 23.6386C33.028 20.4146 33.3864 16.7938 32.5767 13.3441C31.7671 9.89447 29.8352 6.81116 27.0842 4.57788C24.3332 2.34461 20.9186 1.08773 17.3762 1.00442C13.8338 0.921111 10.3639 2.01608 7.51092 4.11755C4.65794 6.21903 2.58327 9.20812 1.61235 12.6159C0.641439 16.0237 0.829222 19.6574 2.14624 22.9469C3.46327 26.2365 5.83501 28.9958 8.88942 30.792" stroke="#37A3DE" stroke-width="1.5" stroke-linecap="round"/>
</svg>
