<svg width="35" height="14" viewBox="0 0 35 14" fill="none" xmlns="http://www.w3.org/2000/svg">
<path d="M9.40283 13.9219C10.3088 13.9219 11.1585 13.7534 11.9521 13.4165C12.7533 13.0721 13.4533 12.5967 14.0522 11.9902C14.6587 11.3838 15.1304 10.6838 15.4673 9.89014C15.8117 9.09652 15.9839 8.243 15.9839 7.32959C15.9839 6.42367 15.8117 5.57389 15.4673 4.78027C15.1304 3.98665 14.6587 3.29036 14.0522 2.69141C13.4533 2.08496 12.7533 1.61328 11.9521 1.27637C11.1585 0.931966 10.3088 0.759766 9.40283 0.759766C8.48942 0.759766 7.6359 0.931966 6.84229 1.27637C6.04867 1.61328 5.34863 2.08496 4.74219 2.69141C4.14323 3.29036 3.67155 3.98665 3.32715 4.78027C2.98275 5.57389 2.81055 6.42367 2.81055 7.32959C2.81055 8.243 2.98275 9.09652 3.32715 9.89014C3.67155 10.6838 4.14323 11.3838 4.74219 11.9902C5.34863 12.5967 6.04867 13.0721 6.84229 13.4165C7.6359 13.7534 8.48942 13.9219 9.40283 13.9219ZM9.40283 12.2935C8.48942 12.2935 7.65462 12.0726 6.89844 11.6309C6.14974 11.1816 5.55078 10.5827 5.10156 9.83398C4.65983 9.0778 4.43896 8.243 4.43896 7.32959C4.43896 6.41618 4.65983 5.58512 5.10156 4.83643C5.55078 4.08773 6.14974 3.49251 6.89844 3.05078C7.65462 2.60156 8.48942 2.37695 9.40283 2.37695C10.3088 2.37695 11.1361 2.60156 11.8848 3.05078C12.6335 3.49251 13.2324 4.09147 13.6816 4.84766C14.1309 5.59635 14.3555 6.42367 14.3555 7.32959C14.3555 8.243 14.1309 9.07406 13.6816 9.82275C13.2324 10.5715 12.6335 11.1704 11.8848 11.6196C11.1361 12.0688 10.3088 12.2935 9.40283 12.2935ZM25.5972 13.9219C26.5031 13.9219 27.3529 13.7534 28.1465 13.4165C28.9401 13.0721 29.6401 12.5967 30.2466 11.9902C30.853 11.3838 31.3285 10.6838 31.6729 9.89014C32.0173 9.09652 32.1895 8.243 32.1895 7.32959C32.1895 6.42367 32.0173 5.57389 31.6729 4.78027C31.3285 3.98665 30.853 3.29036 30.2466 2.69141C29.6401 2.08496 28.9401 1.61328 28.1465 1.27637C27.3529 0.931966 26.5031 0.759766 25.5972 0.759766C24.6912 0.759766 23.8377 0.931966 23.0366 1.27637C22.243 1.61328 21.543 2.08496 20.9365 2.69141C20.3376 3.29036 19.8659 3.98665 19.5215 4.78027C19.1846 5.57389 19.0161 6.42367 19.0161 7.32959C19.0161 8.243 19.1846 9.09652 19.5215 9.89014C19.8659 10.6838 20.3376 11.3838 20.9365 11.9902C21.543 12.5967 22.243 13.0721 23.0366 13.4165C23.8377 13.7534 24.6912 13.9219 25.5972 13.9219ZM25.5972 12.2935C24.6912 12.2935 23.8602 12.0688 23.104 11.6196C22.3553 11.1704 21.7563 10.5715 21.3071 9.82275C20.8654 9.07406 20.6445 8.243 20.6445 7.32959C20.6445 6.42367 20.8654 5.59635 21.3071 4.84766C21.7563 4.09147 22.3553 3.49251 23.104 3.05078C23.8602 2.60156 24.6912 2.37695 25.5972 2.37695C26.5106 2.37695 27.3416 2.60156 28.0903 3.05078C28.839 3.49251 29.438 4.08773 29.8872 4.83643C30.3364 5.58512 30.561 6.41618 30.561 7.32959C30.561 8.243 30.3364 9.0778 29.8872 9.83398C29.438 10.5827 28.839 11.1816 28.0903 11.6309C27.3416 12.0726 26.5106 12.2935 25.5972 12.2935ZM3.46191 6.08301H1.5752C1.06608 6.08301 0.811523 6.33757 0.811523 6.84668V7.25098C0.811523 7.7526 1.06608 8.00342 1.5752 8.00342H3.46191V6.08301ZM31.5381 8.00342H33.4248C33.9264 8.00342 34.1772 7.7526 34.1772 7.25098V6.84668C34.1772 6.33757 33.9264 6.08301 33.4248 6.08301H31.5381V8.00342ZM15.5122 7.63281C15.7892 7.46061 16.1037 7.33333 16.4556 7.25098C16.8075 7.16113 17.1556 7.11621 17.5 7.11621C17.8444 7.11621 18.1925 7.16113 18.5444 7.25098C18.8963 7.33333 19.2108 7.46061 19.4878 7.63281V5.82471C19.1808 5.68245 18.8477 5.58138 18.4883 5.52148C18.1289 5.46159 17.7995 5.43164 17.5 5.43164C17.2005 5.43164 16.8674 5.46159 16.5005 5.52148C16.1411 5.58138 15.8117 5.68245 15.5122 5.82471V7.63281Z" fill="black"/>
</svg>
