<svg width="7" height="10" viewBox="0 0 7 10" fill="none" xmlns="http://www.w3.org/2000/svg">
<path d="M1.34375 9.59863C0.660156 9.59863 0.298828 9.22754 0.298828 8.49023V5.27734C0.298828 4.62793 0.582031 4.26172 1.11914 4.18359V3.07031C1.11914 1.34668 2.25195 0.492188 3.47754 0.492188C4.70312 0.492188 5.83594 1.34668 5.83594 3.07031V4.18848C6.37305 4.26172 6.65625 4.62793 6.65625 5.27734V8.49023C6.65625 9.22754 6.29492 9.59863 5.60645 9.59863H1.34375ZM1.89551 2.98242V4.16895H5.05957V2.98242C5.05957 1.84473 4.32715 1.23438 3.47754 1.23438C2.62305 1.23438 1.89551 1.84473 1.89551 2.98242Z" fill="black"/>
</svg>
