<svg width="73" height="69" viewBox="0 0 73 69" fill="none" xmlns="http://www.w3.org/2000/svg">
<g clip-path="url(#clip0_1_917)">
<path d="M73 65.8352C73.0632 67.7466 72.0528 68.7807 70.1268 68.9373C69.8426 68.9687 60.1493 68.9687 45.2777 68.9687C44.4252 68.9687 43.7621 68.2793 43.7621 67.4646L38.3945 47.0027C38.3945 46.1567 37.6999 45.4986 36.8789 45.4986H33.6268C32.7743 45.4986 32.1112 46.188 32.1112 47.0027L37.4788 67.4646C37.4788 68.3106 36.7842 68.9687 35.9633 68.9687C23.3335 68.9687 7.73576 68.9687 5.05194 68.9687C0.694671 68.9687 -0.852474 67.1826 0.505225 63.0463C2.27339 57.594 16.1345 23.8147 20.997 12.3461C21.6285 10.9046 22.039 9.24387 21.4706 7.70845C21.0602 6.58038 20.2076 5.54632 19.2604 4.82561C18.4079 4.16757 17.2712 3.69755 16.7345 2.69482C16.5134 2.28747 16.3871 1.81744 16.4819 1.34741C16.5766 0.877384 16.8292 0.470027 17.2397 0.250681C17.5554 0.0940056 17.9027 0.0313353 18.2816 0.0313353C19.3867 -0.031335 42.3097 0.0626704 42.8149 0.0940056C46.8249 0.250681 49.5087 2.16213 50.9295 5.95368C56.7392 21.2766 71.1687 59.0668 72.4317 62.7016C72.8106 63.673 72.9685 64.7698 73 65.8352Z" fill="#F20815"/>
<path d="M64.0329 28.3898H8.96716C8.3041 28.3898 7.76733 27.8571 7.76733 27.199V26.4783C7.76733 25.8203 8.3041 25.2876 8.96716 25.2876H64.0329C64.696 25.2876 65.2327 25.8203 65.2327 26.4783V27.199C65.2327 27.8571 64.696 28.3898 64.0329 28.3898Z" fill="black"/>
<path d="M22.702 40.0151C30.0434 40.0151 35.9948 34.1088 35.9948 26.823C35.9948 19.5372 30.0434 13.6309 22.702 13.6309C15.3606 13.6309 9.40918 19.5372 9.40918 26.823C9.40918 34.1088 15.3606 40.0151 22.702 40.0151Z" fill="black"/>
<path d="M50.5506 40.0151C57.8921 40.0151 63.8435 34.1088 63.8435 26.823C63.8435 19.5372 57.8921 13.6309 50.5506 13.6309C43.2092 13.6309 37.2578 19.5372 37.2578 26.823C37.2578 34.1088 43.2092 40.0151 50.5506 40.0151Z" fill="black"/>
<path d="M22.7019 37.5083C28.6483 37.5083 33.4688 32.7243 33.4688 26.823C33.4688 20.9217 28.6483 16.1377 22.7019 16.1377C16.7555 16.1377 11.9351 20.9217 11.9351 26.823C11.9351 32.7243 16.7555 37.5083 22.7019 37.5083Z" fill="#FCF3E6"/>
<path d="M50.5506 37.5083C56.4969 37.5083 61.3174 32.7243 61.3174 26.823C61.3174 20.9217 56.4969 16.1377 50.5506 16.1377C44.6042 16.1377 39.7837 20.9217 39.7837 26.823C39.7837 32.7243 44.6042 37.5083 50.5506 37.5083Z" fill="#FCF3E6"/>
<path d="M18.6289 29.0477C18.3132 29.0477 17.9975 28.9224 17.7449 28.6717C17.2397 28.1704 17.2397 27.387 17.7449 26.8856L18.1238 26.5096C19.3552 25.2875 20.997 24.5981 22.7652 24.5981C24.5018 24.5981 26.1752 25.2875 27.4066 26.5096L27.6908 26.7916C28.196 27.293 28.196 28.0763 27.6908 28.5777C27.1856 29.0791 26.3962 29.0791 25.8911 28.5777L25.6069 28.2957C24.8491 27.5436 23.8387 27.1363 22.7652 27.1363C21.6917 27.1363 20.6813 27.5436 19.9235 28.2957L19.5446 28.6717C19.292 28.9224 18.9763 29.0477 18.6289 29.0477Z" fill="black"/>
<path d="M46.4776 29.0477C46.1618 29.0477 45.8461 28.9224 45.5935 28.6717C45.0883 28.1704 45.0883 27.387 45.5935 26.8856L45.9724 26.5096C47.2038 25.2875 48.8457 24.5981 50.6138 24.5981C52.3504 24.5981 54.0239 25.2875 55.2553 26.5096L55.5394 26.7916C56.0446 27.293 56.0446 28.0763 55.5394 28.5777C55.0342 29.0791 54.2449 29.0791 53.7397 28.5777L53.4555 28.2957C52.6977 27.5436 51.6874 27.1363 50.6138 27.1363C49.5403 27.1363 48.5299 27.5436 47.7721 28.2957L47.3932 28.6717C47.1406 28.9224 46.7933 29.0477 46.4776 29.0477Z" fill="black"/>
</g>
<defs>
<clipPath id="clip0_1_917">
<rect width="73" height="69" fill="white"/>
</clipPath>
</defs>
</svg>
