<svg width="14" height="15" viewBox="0 0 14 15" fill="none" xmlns="http://www.w3.org/2000/svg">
<path d="M12.178 14.9978C11.9426 14.9972 11.7097 14.9507 11.4926 14.8612C11.2756 14.7716 11.0788 14.6407 10.9136 14.476L6.99999 10.6553L3.08641 14.4785C2.83506 14.7289 2.51272 14.8992 2.16141 14.9671C1.81009 15.035 1.4461 14.9973 1.11688 14.8591C0.784398 14.7278 0.499965 14.501 0.30073 14.2085C0.101495 13.916 -0.00328312 13.5712 7.84221e-05 13.2193V3.12455C7.84221e-05 2.29587 0.335301 1.50112 0.932 0.915159C1.5287 0.329192 2.338 0 3.18186 0H10.8181C11.236 0 11.6497 0.0808188 12.0357 0.237842C12.4218 0.394865 12.7725 0.625018 13.068 0.915159C13.3634 1.2053 13.5978 1.54975 13.7577 1.92883C13.9176 2.30792 13.9999 2.71423 13.9999 3.12455V13.2193C14.0035 13.571 13.8991 13.9155 13.7003 14.208C13.5016 14.5005 13.2177 14.7274 12.8857 14.8591C12.6615 14.9511 12.421 14.9983 12.178 14.9978ZM3.18186 1.24982C2.67554 1.24982 2.18996 1.44733 1.83194 1.79891C1.47392 2.15049 1.27279 2.62734 1.27279 3.12455V13.2193C1.27256 13.3235 1.30376 13.4253 1.36245 13.5121C1.42114 13.5988 1.50469 13.6665 1.60254 13.7066C1.7004 13.7467 1.80816 13.7575 1.91223 13.7375C2.01629 13.7175 2.11199 13.6677 2.18723 13.5943L6.55455 9.33177C6.67378 9.21538 6.83506 9.15005 7.00318 9.15005C7.17129 9.15005 7.33258 9.21538 7.45181 9.33177L11.814 13.593C11.8893 13.6664 11.985 13.7162 12.089 13.7362C12.1931 13.7562 12.3009 13.7455 12.3987 13.7053C12.4966 13.6652 12.5801 13.5975 12.6388 13.5108C12.6975 13.4241 12.7287 13.3222 12.7285 13.2181V3.12455C12.7285 2.62734 12.5273 2.15049 12.1693 1.79891C11.8113 1.44733 11.3257 1.24982 10.8194 1.24982H3.18186Z" fill="#FCF3E6"/>
</svg>
