<svg width="23" height="23" viewBox="0 0 23 23" fill="none" xmlns="http://www.w3.org/2000/svg">
<path d="M0.741211 11.3296C0.741211 12.8045 1.02197 14.1934 1.5835 15.4961C2.15251 16.7913 2.93115 17.9331 3.91943 18.9214C4.90771 19.9097 6.04948 20.6846 7.34473 21.2461C8.63997 21.8076 10.0251 22.0884 11.5 22.0884C12.9749 22.0884 14.36 21.8076 15.6553 21.2461C16.9505 20.6846 18.0923 19.9097 19.0806 18.9214C20.0763 17.9331 20.855 16.7913 21.4165 15.4961C21.978 14.1934 22.2588 12.8045 22.2588 11.3296C22.2588 9.86214 21.9743 8.48079 21.4053 7.18555C20.8438 5.88281 20.0651 4.7373 19.0693 3.74902C18.0811 2.75326 16.9393 1.97461 15.644 1.41309C14.3488 0.851562 12.9637 0.570801 11.4888 0.570801C10.0213 0.570801 8.63997 0.851562 7.34473 1.41309C6.04948 1.97461 4.90397 2.75326 3.9082 3.74902C2.91992 4.7373 2.14502 5.88281 1.5835 7.18555C1.02197 8.48079 0.741211 9.86214 0.741211 11.3296ZM2.38086 11.3296C2.38086 10.0718 2.6167 8.89258 3.08838 7.79199C3.56006 6.68392 4.21143 5.71436 5.04248 4.8833C5.87354 4.04476 6.83936 3.38965 7.93994 2.91797C9.04053 2.44629 10.2235 2.21045 11.4888 2.21045C12.7616 2.21045 13.9482 2.44629 15.0488 2.91797C16.1494 3.38965 17.1152 4.04476 17.9463 4.8833C18.7848 5.71436 19.4399 6.68392 19.9116 7.79199C20.3833 8.89258 20.6191 10.0718 20.6191 11.3296C20.6266 12.4227 20.4507 13.4596 20.0913 14.4404C19.7394 15.4137 19.2378 16.2972 18.5864 17.0908C17.9425 17.877 17.1901 18.5396 16.3291 19.0786L14.9702 12.7222C14.9253 12.4826 14.813 12.2842 14.6333 12.127C14.4611 11.9622 14.2627 11.8724 14.0381 11.8574H13.9258L12.1514 6.51172C12.084 6.2946 11.9604 6.15234 11.7808 6.08496C11.6011 6.01758 11.4214 6.01758 11.2417 6.08496C11.062 6.15234 10.9347 6.2946 10.8599 6.51172L9.08545 11.8574H8.98438C8.75228 11.8724 8.55013 11.9622 8.37793 12.127C8.20573 12.2842 8.09342 12.4788 8.04102 12.7109L6.68213 19.0786C5.82113 18.5396 5.06868 17.877 4.4248 17.0908C3.78092 16.2972 3.2793 15.4137 2.91992 14.4404C2.56055 13.4671 2.38086 12.4302 2.38086 11.3296ZM7.83887 19.6963L9.24268 13.1152H13.7686L15.1724 19.6963C14.6108 19.9359 14.0194 20.123 13.3979 20.2578C12.784 20.3926 12.1514 20.46 11.5 20.46C10.8486 20.46 10.2122 20.3926 9.59082 20.2578C8.97689 20.1305 8.3929 19.9434 7.83887 19.6963Z" fill="black"/>
</svg>
