<svg width="11" height="19" viewBox="0 0 11 19" fill="none" xmlns="http://www.w3.org/2000/svg">
<path d="M10.5059 9.32422C10.5059 9.05566 10.4092 8.81934 10.2051 8.61523L1.68653 0.290038C1.50391 0.0966789 1.26758 -8.07636e-07 0.988283 -8.32053e-07C0.429689 -8.80887e-07 1.59367e-06 0.418944 1.54484e-06 0.977538C1.52042e-06 1.25684 0.118166 1.49316 0.290041 1.67578L8.11035 9.32422L0.290039 16.9727C0.118164 17.1553 1.08937e-07 17.4023 8.54592e-08 17.6709C3.66254e-08 18.2295 0.429688 18.6484 0.988281 18.6484C1.26758 18.6484 1.50391 18.5518 1.68652 18.3691L10.2051 10.0332C10.4092 9.83984 10.5059 9.59277 10.5059 9.32422Z" fill="#B4B4B4"/>
</svg>
