<svg width="29" height="34" viewBox="0 0 29 34" fill="none" xmlns="http://www.w3.org/2000/svg">
<path d="M14.2114 7.37822V26.2393M7.64306 8.48307C6.14046 9.95621 6.14046 12.3446 7.64306 13.8178C8.53984 14.697 9.76915 15.0514 10.9341 14.8812M18.8559 27.0205C20.3585 25.5474 20.3585 23.1589 18.8559 21.6858M22.6142 14.0538C21.4873 12.9489 19.6601 12.9489 18.5332 14.0538M5.83593 23.2215C6.96288 24.3263 8.79003 24.3263 9.91698 23.2215M14.2114 32.8406C23.8305 32.8406 27.6782 25.2962 27.6782 17.9737C27.6782 10.2813 23.1893 4.54906 14.2114 0.776855C5.23356 4.54906 0.744629 10.2813 0.744629 17.9737C0.744629 25.2962 4.59228 32.8406 14.2114 32.8406ZM14.2114 5.81572L16.2544 7.81804C16.7926 7.5373 17.4069 7.37822 18.0591 7.37822C20.1841 7.37822 21.9067 9.06709 21.9067 11.1504C21.9067 11.9278 21.6669 12.6502 21.2558 13.2504C22.7548 13.7624 23.8305 15.1624 23.8305 16.8087C23.8305 17.4961 23.643 18.1405 23.3154 18.6955C23.643 19.2492 23.8305 19.8936 23.8305 20.5809C23.8305 22.6643 22.1079 24.3531 19.9829 24.3531C19.9829 26.4365 18.2602 28.1254 16.1352 28.1254C15.4344 28.1254 14.7772 27.9416 14.2113 27.6206C13.6471 27.9412 12.9893 28.1254 12.2876 28.1254C10.1626 28.1254 8.43993 26.4365 8.43993 24.3531L8.15278 24.3428C6.16189 24.1988 4.59228 22.5696 4.59228 20.5809C4.59228 19.8936 4.77979 19.2492 5.1074 18.6942C4.77979 18.1405 4.59228 17.4961 4.59228 16.8087C4.59228 15.1624 5.66803 13.7624 7.16798 13.2475C6.75593 12.6502 6.51611 11.9278 6.51611 11.1504C6.51611 9.06709 8.23876 7.37822 10.3638 7.37822C11.0159 7.37822 11.6302 7.5373 12.1684 7.81804L14.2114 5.81572Z" stroke="#FCF3E6" stroke-width="1.2" stroke-linecap="square"/>
</svg>
