<svg width="35" height="27" viewBox="0 0 35 27" fill="none" xmlns="http://www.w3.org/2000/svg">
<path d="M26.2254 12.9201V12.7461M10.1847 9.05215C18.3269 4.01539 29.0445 6.47847 34.1232 14.5536L33.722 15.1625C32.7565 16.5624 31.5871 17.8144 30.2509 18.8772C23.4205 24.3096 13.7187 23.7933 7.51122 18.0221C6.51597 20.5671 3.93337 22.2842 1.04344 22.0763L0.776855 22.0516V21.603C0.776855 18.9143 1.96376 16.4583 3.88695 14.7777C2.09909 13.402 0.921651 11.2964 0.789315 8.92891L0.776855 8.48205V7.05562L1.14064 7.07013C3.87356 7.24583 6.21349 8.90739 7.31806 11.2707C8.18915 10.4364 9.15068 9.69178 10.1847 9.05215ZM20.148 22.6505L20.3789 22.6393C19.0994 23.903 17.531 24.8627 15.746 25.3825C14.3591 25.7863 12.9632 25.8891 11.6172 25.7276C12.2745 24.4035 12.7842 22.9881 13.1299 21.5134C15.3673 22.3688 17.7611 22.7532 20.148 22.6505ZM21.861 6.37305L22.0426 6.64428C18.6034 6.11387 14.9902 6.60047 11.6947 8.21708C10.6877 6.10674 9.33687 4.26712 7.74584 2.76381C8.43231 2.38532 9.16742 2.07618 9.94347 1.85022C14.5238 0.516529 19.202 2.46688 21.861 6.37305Z" stroke="#FCF3E6" stroke-width="1.2" stroke-linecap="round"/>
</svg>
