<svg width="60" height="60" viewBox="0 0 60 60" fill="none" xmlns="http://www.w3.org/2000/svg">
<rect width="60" height="60" rx="13.3594" fill="white"/>
<rect width="15.6818" height="24.5454" rx="7.84091" transform="matrix(-0.707107 0.707107 0.707107 0.707107 16.9824 5.89404)" fill="url(#paint0_linear_193_1387)" style="mix-blend-mode:multiply"/>
<rect x="28.2949" y="22.1592" width="15.6818" height="24.5454" rx="7.84091" transform="rotate(90 28.2949 22.1592)" fill="url(#paint1_linear_193_1387)" style="mix-blend-mode:multiply"/>
<rect x="23.25" y="25.6609" width="15.6818" height="24.5454" rx="7.84091" transform="rotate(45 23.25 25.6609)" fill="url(#paint2_linear_193_1387)" style="mix-blend-mode:multiply"/>
<rect x="22.1582" y="31.7046" width="15.6818" height="24.5454" rx="7.84091" fill="url(#paint3_linear_193_1387)" style="mix-blend-mode:multiply"/>
<rect width="15.6818" height="24.5454" rx="7.84091" transform="matrix(-0.707107 0.707107 0.707107 0.707107 36.75 25.6609)" fill="url(#paint4_linear_193_1387)" style="mix-blend-mode:multiply"/>
<rect x="56.25" y="22.1592" width="15.6818" height="24.5454" rx="7.84091" transform="rotate(90 56.25 22.1592)" fill="url(#paint5_linear_193_1387)" style="mix-blend-mode:multiply"/>
<rect x="43.0176" y="5.89404" width="15.6818" height="24.5454" rx="7.84091" transform="rotate(45 43.0176 5.89404)" fill="url(#paint6_linear_193_1387)" style="mix-blend-mode:multiply"/>
<rect x="22.1582" y="3.75" width="15.6818" height="24.5454" rx="7.84091" fill="url(#paint7_linear_193_1387)" style="mix-blend-mode:multiply"/>
<defs>
<linearGradient id="paint0_linear_193_1387" x1="7.84091" y1="0" x2="7.84091" y2="24.5454" gradientUnits="userSpaceOnUse">
<stop offset="0.0352257" stop-color="#FF7171"/>
<stop offset="1" stop-color="#EA1616" stop-opacity="0.6"/>
</linearGradient>
<linearGradient id="paint1_linear_193_1387" x1="36.1358" y1="22.1592" x2="36.1358" y2="46.7046" gradientUnits="userSpaceOnUse">
<stop stop-color="#BB004F" stop-opacity="0.6"/>
<stop offset="1" stop-color="#D893C3"/>
</linearGradient>
<linearGradient id="paint2_linear_193_1387" x1="31.0909" y1="25.6609" x2="31.0909" y2="50.2063" gradientUnits="userSpaceOnUse">
<stop stop-color="#825475" stop-opacity="0.6"/>
<stop offset="1" stop-color="#B297DF"/>
</linearGradient>
<linearGradient id="paint3_linear_193_1387" x1="29.9991" y1="31.7046" x2="29.9991" y2="56.25" gradientUnits="userSpaceOnUse">
<stop stop-color="#5842AD" stop-opacity="0.6"/>
<stop offset="1" stop-color="#70AADA"/>
</linearGradient>
<linearGradient id="paint4_linear_193_1387" x1="7.84091" y1="0" x2="7.84091" y2="24.5454" gradientUnits="userSpaceOnUse">
<stop stop-color="#007E9A" stop-opacity="0.6"/>
<stop offset="1" stop-color="#80BF94"/>
</linearGradient>
<linearGradient id="paint5_linear_193_1387" x1="64.0909" y1="22.1592" x2="64.0909" y2="46.7046" gradientUnits="userSpaceOnUse">
<stop stop-color="#C5D862"/>
<stop offset="1" stop-color="#42A963" stop-opacity="0.6"/>
</linearGradient>
<linearGradient id="paint6_linear_193_1387" x1="50.8585" y1="5.89404" x2="50.8585" y2="30.4395" gradientUnits="userSpaceOnUse">
<stop stop-color="#F6E552"/>
<stop offset="1" stop-color="#9AC73C" stop-opacity="0.6"/>
</linearGradient>
<linearGradient id="paint7_linear_193_1387" x1="29.9991" y1="3.75" x2="29.9991" y2="28.2954" gradientUnits="userSpaceOnUse">
<stop stop-color="#FFA235"/>
<stop offset="1" stop-color="#CFBB09" stop-opacity="0.66"/>
</linearGradient>
</defs>
</svg>
