<svg width="25" height="23" viewBox="0 0 25 23" fill="none" xmlns="http://www.w3.org/2000/svg">
<path d="M5.29004 22.583C5.49219 22.7402 5.72054 22.7964 5.9751 22.7515C6.22965 22.7065 6.51042 22.5718 6.81738 22.3472L12.4888 18.1694L18.1826 22.3472C18.4896 22.5718 18.7703 22.7065 19.0249 22.7515C19.2795 22.7964 19.5078 22.7402 19.71 22.583C19.9121 22.4333 20.0319 22.2311 20.0693 21.9766C20.1143 21.7295 20.0768 21.4263 19.957 21.0669L17.7222 14.3735L23.4497 10.2632C23.7567 10.0386 23.9701 9.81396 24.0898 9.58936C24.2096 9.35726 24.2284 9.12142 24.146 8.88184C24.0711 8.64974 23.9176 8.4738 23.6855 8.354C23.4535 8.23421 23.1502 8.17806 22.7759 8.18555L15.7344 8.21924L13.6006 1.50342C13.4808 1.14404 13.3311 0.874512 13.1514 0.694824C12.9717 0.50765 12.7508 0.414062 12.4888 0.414062C12.2417 0.414062 12.0283 0.50765 11.8486 0.694824C11.6689 0.874512 11.5192 1.14404 11.3994 1.50342L9.26562 8.21924L2.22412 8.18555C1.84229 8.17806 1.53532 8.23421 1.30322 8.354C1.07861 8.4738 0.928874 8.64974 0.854004 8.88184C0.771647 9.12142 0.790365 9.35726 0.910156 9.58936C1.02995 9.81396 1.24333 10.0386 1.55029 10.2632L7.27783 14.3735L5.03174 21.0669C4.91943 21.4263 4.882 21.7295 4.91943 21.9766C4.96436 22.2311 5.08789 22.4333 5.29004 22.583ZM6.66016 20.7075C6.65267 20.6925 6.65267 20.6589 6.66016 20.6064L8.79395 14.3848C8.86882 14.1901 8.88379 14.0142 8.83887 13.8569C8.79395 13.6997 8.68538 13.5612 8.51318 13.4414L3.12256 9.69043C3.07015 9.66048 3.04769 9.63428 3.05518 9.61182C3.06266 9.58187 3.1001 9.56689 3.16748 9.56689L9.72607 9.66797C9.93571 9.67546 10.1042 9.63428 10.2314 9.54443C10.3662 9.45459 10.4673 9.30859 10.5347 9.10645L12.4326 2.82861C12.4476 2.76123 12.4663 2.72754 12.4888 2.72754C12.5262 2.72754 12.5524 2.76123 12.5674 2.82861L14.4653 9.10645C14.5327 9.30859 14.63 9.45459 14.7573 9.54443C14.8921 9.63428 15.0643 9.67546 15.2739 9.66797L21.8325 9.56689C21.8999 9.56689 21.9373 9.58187 21.9448 9.61182C21.9523 9.63428 21.9299 9.66048 21.8774 9.69043L16.4868 13.4414C16.3146 13.5612 16.2061 13.6997 16.1611 13.8569C16.1162 14.0142 16.1274 14.1901 16.1948 14.3848L18.3286 20.6064C18.3436 20.6589 18.3473 20.6925 18.3398 20.7075C18.3249 20.7225 18.2874 20.715 18.2275 20.6851L13.0054 16.7095C12.8407 16.5822 12.6722 16.5186 12.5 16.5186C12.3278 16.5186 12.1593 16.5822 11.9946 16.7095L6.77246 20.6851C6.71257 20.715 6.67513 20.7225 6.66016 20.7075Z" fill="black"/>
</svg>
