<svg width="17" height="17" viewBox="0 0 17 17" fill="none" xmlns="http://www.w3.org/2000/svg">
<path d="M8.33333 0C3.73333 0 0 3.73333 0 8.33333C0 12.9333 3.73333 16.6667 8.33333 16.6667C12.9333 16.6667 16.6667 12.9333 16.6667 8.33333C16.6667 3.73333 12.9333 0 8.33333 0ZM4.225 13.5667C4.58333 12.8167 6.76667 12.0833 8.33333 12.0833C9.9 12.0833 12.0917 12.8167 12.4417 13.5667C11.3083 14.4667 9.88333 15 8.33333 15C6.78333 15 5.35833 14.4667 4.225 13.5667ZM13.6333 12.3583C12.4417 10.9083 9.55 10.4167 8.33333 10.4167C7.11667 10.4167 4.225 10.9083 3.03333 12.3583C2.18333 11.2417 1.66667 9.85 1.66667 8.33333C1.66667 4.65833 4.65833 1.66667 8.33333 1.66667C12.0083 1.66667 15 4.65833 15 8.33333C15 9.85 14.4833 11.2417 13.6333 12.3583Z" fill="black"/>
<path d="M8.33366 3.33398C6.71699 3.33398 5.41699 4.63398 5.41699 6.25065C5.41699 7.86732 6.71699 9.16732 8.33366 9.16732C9.95033 9.16732 11.2503 7.86732 11.2503 6.25065C11.2503 4.63398 9.95033 3.33398 8.33366 3.33398ZM8.33366 7.50065C7.64199 7.50065 7.08366 6.94232 7.08366 6.25065C7.08366 5.55898 7.64199 5.00065 8.33366 5.00065C9.02533 5.00065 9.58366 5.55898 9.58366 6.25065C9.58366 6.94232 9.02533 7.50065 8.33366 7.50065Z" fill="black"/>
</svg>
