<svg width="16" height="19" viewBox="0 0 16 19" fill="none" xmlns="http://www.w3.org/2000/svg">
<path d="M7.69029 8.8871C7.92853 8.8871 8.10959 8.81281 8.25253 8.67351L11.9595 5.03324C12.131 4.86608 12.2073 4.68035 12.2073 4.46676C12.2073 4.26246 12.1215 4.05816 11.9595 3.90029L8.25253 0.23216C8.10959 0.0835777 7.92853 0 7.69029 0C7.26147 0 6.92793 0.343597 6.92793 0.780059C6.92793 0.975073 7.00417 1.1608 7.13758 1.31867L9.46278 3.52884C8.97677 3.44526 8.48124 3.40811 7.99524 3.40811C3.5545 3.40811 0 6.86266 0 11.1901C0 15.5176 3.56403 19 8.00476 19C12.436 19 16 15.5176 16 11.1901C16 10.7351 15.6665 10.4008 15.19 10.4008C14.7326 10.4008 14.4276 10.7351 14.4276 11.1901C14.4276 14.6725 11.5688 17.4677 8.00476 17.4677C4.43121 17.4677 1.57236 14.6725 1.57236 11.1901C1.57236 7.69844 4.42168 4.9218 7.99524 4.9218C8.65277 4.9218 9.2436 4.96823 9.76772 5.07038L7.14711 7.60557C7.00417 7.75415 6.92793 7.9306 6.92793 8.12561C6.92793 8.56207 7.26147 8.8871 7.69029 8.8871Z" fill="#1A73E8"/>
</svg>
