<svg width="24" height="24" viewBox="0 0 24 24" fill="none" xmlns="http://www.w3.org/2000/svg">
<path d="M22.4849 10.9759L11.9999 17.2679L1.51493 10.9759C1.28751 10.8395 1.01519 10.7989 0.757892 10.8633C0.500592 10.9276 0.279384 11.0915 0.14293 11.3189C0.00647612 11.5463 -0.0340455 11.8187 0.0302795 12.076C0.0946045 12.3333 0.258507 12.5545 0.48593 12.6909L11.4859 19.2909C11.6415 19.3844 11.8195 19.4337 12.0009 19.4337C12.1824 19.4337 12.3604 19.3844 12.5159 19.2909L23.5159 12.6909C23.7434 12.5545 23.9073 12.3333 23.9716 12.076C24.0359 11.8187 23.9954 11.5463 23.8589 11.3189C23.7225 11.0915 23.5013 10.9276 23.244 10.8633C22.9867 10.7989 22.7144 10.8395 22.4869 10.9759H22.4849Z" fill="#FCF3E6"/>
<path d="M22.485 15.5434L12 21.8345L1.51499 15.5434C1.40238 15.4759 1.27757 15.4312 1.14768 15.4118C1.01778 15.3925 0.885355 15.3989 0.757953 15.4308C0.630551 15.4626 0.51067 15.5193 0.405155 15.5975C0.299639 15.6756 0.210556 15.7738 0.142991 15.8864C0.0754256 15.9991 0.0307019 16.1239 0.0113733 16.2538C-0.00795529 16.3837 -0.00151036 16.5161 0.0303401 16.6435C0.0946651 16.9008 0.258568 17.122 0.485991 17.2584L11.486 23.8585C11.6415 23.9519 11.8195 24.0013 12.001 24.0013C12.1824 24.0013 12.3605 23.9519 12.516 23.8585L23.516 17.2584C23.7434 17.122 23.9073 16.9008 23.9716 16.6435C24.036 16.3862 23.9954 16.1139 23.859 15.8864C23.7225 15.659 23.5013 15.4951 23.244 15.4308C22.9867 15.3665 22.7144 15.407 22.487 15.5434H22.485Z" fill="#FCF3E6"/>
<path d="M11.9997 14.774C11.4603 14.7737 10.9311 14.6268 10.4687 14.349L0.484684 8.35803C0.336831 8.26913 0.214494 8.14349 0.129564 7.99332C0.0446343 7.84315 0 7.67356 0 7.50103C0 7.32851 0.0446343 7.15892 0.129564 7.00875C0.214494 6.85858 0.336831 6.73294 0.484684 6.64403L10.4687 0.653032C10.9311 0.375261 11.4603 0.228516 11.9997 0.228516C12.5391 0.228516 13.0683 0.375261 13.5307 0.653032L23.5147 6.64403C23.6625 6.73294 23.7849 6.85858 23.8698 7.00875C23.9547 7.15892 23.9994 7.32851 23.9994 7.50103C23.9994 7.67356 23.9547 7.84315 23.8698 7.99332C23.7849 8.14349 23.6625 8.26913 23.5147 8.35803L13.5307 14.349C13.0683 14.6268 12.5391 14.7737 11.9997 14.774ZM2.94368 7.50103L11.4997 12.634C11.6508 12.7244 11.8236 12.7722 11.9997 12.7722C12.1758 12.7722 12.3486 12.7244 12.4997 12.634L21.0557 7.50103L12.4997 2.36803C12.3486 2.27764 12.1758 2.2299 11.9997 2.2299C11.8236 2.2299 11.6508 2.27764 11.4997 2.36803L2.94368 7.50103Z" fill="#FCF3E6"/>
</svg>
