<svg width="17" height="36" viewBox="0 0 17 36" fill="none" xmlns="http://www.w3.org/2000/svg">
<g clip-path="url(#clip0_1_2824)">
<path d="M16.9883 15.5032C16.9883 14.4462 16.5288 13.6564 15.5978 13.0611C15.5253 13.0125 15.4527 12.976 15.3681 12.9153C15.3197 12.891 15.2593 12.8545 15.1988 12.8181L15.0174 12.7087V12.5143C15.0174 12.3807 15.0174 12.2349 15.0174 12.1012C15.0174 11.8097 15.0295 11.4938 15.0053 11.2022C14.9328 9.92643 14.0381 8.90584 12.7806 8.63854C12.6839 8.61424 12.5871 8.58994 12.4904 8.56564C12.4541 8.55349 12.4179 8.54134 12.3816 8.52919L12.176 8.46844L12.1156 8.27405L12.0672 8.1161C12.031 8.00675 12.0068 7.90955 11.9826 7.81235C11.8496 7.26561 11.7045 6.73102 11.5594 6.19642C11.2088 4.67769 10.8098 3.11036 10.3987 1.57948C10.314 1.25143 10.1689 0.959838 9.99966 0.741141C9.61275 0.242997 9.1412 0 8.56083 0C8.42783 0 8.28273 0.0121498 8.13764 0.0364495C7.33963 0.194398 6.83181 0.680392 6.61417 1.48228C6.33608 2.50287 6.07007 3.53561 5.81616 4.54404C5.68316 5.04219 5.56225 5.54033 5.42925 6.03848C5.29625 6.54877 5.16325 7.07121 5.03024 7.58151L4.84888 8.2619L4.80051 8.432L4.63124 8.50489C4.60706 8.51704 4.58288 8.52919 4.55869 8.54134C4.51033 8.56564 4.44987 8.58994 4.37733 8.60209C2.74504 9.00304 1.97121 9.96288 1.95912 11.6517C1.95912 11.8461 1.95912 12.0405 1.95912 12.2349V12.7209L1.78985 12.8302C1.75357 12.8545 1.72939 12.8788 1.70521 12.891C1.65684 12.9274 1.62057 12.9517 1.57221 12.976C0.520287 13.5592 0.000372288 14.434 0.000372288 15.6612V17.7752C0.000372288 22.8053 0.0124633 28.0054 -0.0117188 33.1205C-0.0117188 33.8859 0.290557 34.6149 0.834654 35.1617C1.37875 35.7084 2.09212 36 2.85386 36H2.86595C4.03878 35.9879 5.33252 35.9879 6.92854 35.9879C7.73864 35.9879 8.56083 35.9879 9.37093 35.9879C10.181 35.9879 11.0032 35.9879 11.8133 35.9879C12.5871 35.9879 13.361 35.9879 14.1348 35.9879C15.755 35.9879 16.9883 34.7607 16.9883 33.1326C17.0004 27.5073 17.0004 21.5781 16.9883 15.5032ZM5.96125 8.07965C6.02171 7.8488 6.08216 7.61796 6.14262 7.38711C6.27562 6.87681 6.39653 6.39082 6.52953 5.89268C6.88017 4.53189 7.23081 3.19541 7.521 2.07762C7.55727 1.94398 7.60564 1.76173 7.66609 1.60378C7.81118 1.25143 8.11346 1.05704 8.48828 1.04489H8.50037C8.8631 1.04489 9.16538 1.23928 9.32256 1.57948C9.39511 1.72528 9.43138 1.88323 9.46766 2.01688V2.02902C9.99966 4.10665 10.4833 5.94128 10.9186 7.64226C10.9428 7.73945 10.9669 7.8488 10.979 7.946C10.9911 7.9946 10.9911 8.0432 11.0032 8.10395L11.0758 8.52919H5.85243L5.96125 8.07965ZM3.0594 10.8984C3.28913 10.1208 3.95414 9.61053 4.74006 9.61053C6.09425 9.61053 7.35172 9.59838 8.58501 9.59838C9.84248 9.59838 11.0758 9.59838 12.2486 9.61053C13.1675 9.61053 13.9051 10.2909 14.0139 11.2265C14.0381 11.4573 14.0381 11.6882 14.026 11.9312C14.026 12.0405 14.0139 12.1498 14.0139 12.2713V12.6358H3.0594L3.01104 12.3199C2.95059 11.8826 2.91431 11.3966 3.0594 10.8984ZM1.11275 19.0145L1.18529 18.7351H10.3987V29.9008H1.22157L1.13693 29.6578C1.11275 29.5727 1.02811 29.3297 1.01602 24.3726C1.01602 23.2305 1.01602 19.4155 1.11275 19.0145ZM15.9847 32.6223C15.9847 32.8289 15.9847 33.0354 15.9605 33.242C15.888 34.214 15.2351 34.8701 14.2678 34.9551C14.0502 34.9673 13.8325 34.9794 13.6028 34.9794H3.38586C3.15613 34.9794 2.91431 34.9794 2.67249 34.9551C1.76566 34.8701 1.10066 34.2018 1.05229 33.327C1.02811 32.8775 1.02811 32.4401 1.0402 31.9784C1.0402 31.7719 1.0402 31.5653 1.0402 31.3588V30.9943H10.5317C10.5679 30.9943 10.6163 30.9943 10.6526 30.9943H10.7614C10.8339 30.9943 10.8944 30.9943 10.9428 30.9821C11.2088 30.9578 11.3539 30.8242 11.4143 30.569C11.4506 30.4232 11.4506 30.2531 11.4506 30.1073C11.4506 25.8549 11.4506 22.0763 11.4506 18.5528C11.4506 18.3584 11.4385 18.2005 11.4022 18.0547C11.3539 17.8603 11.245 17.7631 11.0395 17.7266C10.846 17.7023 10.6284 17.6902 10.4591 17.6902C8.71801 17.6902 6.9769 17.6902 5.23579 17.6902H1.13693L1.08857 17.3986C1.07647 17.35 1.07647 17.3135 1.06438 17.2771C1.0402 17.192 1.02811 17.0948 1.02811 16.9855C1.02811 16.8518 1.02811 16.7182 1.02811 16.5845C1.02811 16.1714 1.02811 15.7462 1.06438 15.321C1.13693 14.4583 1.82612 13.7779 2.72086 13.7172C2.7934 13.705 2.85386 13.705 2.91431 13.705H7.23081C9.23792 13.705 11.6078 13.705 14.0139 13.705C14.3403 13.705 14.5943 13.7415 14.7998 13.8265C15.4769 14.0817 15.888 14.6041 15.9605 15.3088C15.9847 15.564 15.9968 15.8191 15.9968 16.0257C15.9847 21.566 15.9847 27.0942 15.9847 32.6223Z" fill="#FCF3E6" stroke="#FCF3E6" stroke-width="0.3"/>
</g>
<defs>
<clipPath id="clip0_1_2824">
<rect width="17" height="36" fill="white"/>
</clipPath>
</defs>
</svg>
