<svg width="36" height="34" viewBox="0 0 36 34" fill="none" xmlns="http://www.w3.org/2000/svg">
<path d="M35 11.1911C34.8189 11.3275 34.6559 11.5064 34.4477 11.6087C32.0302 12.7422 29.4859 13.4751 26.7606 13.5348C26.6248 13.5348 26.498 13.5348 26.3622 13.5348C26.2354 13.5348 26.1087 13.5348 25.991 13.5348C26.2807 13.9865 26.6157 14.4126 26.824 14.8813C27.7385 16.9778 27.4306 18.9209 25.7918 20.5828C24.5061 21.8868 23.157 23.1396 21.7807 24.3583C19.7345 26.1735 16.7375 26.2502 14.5282 24.6139C14.4739 24.5713 14.4105 24.5372 14.2928 24.4605C14.2928 24.9207 14.3109 25.3383 14.2928 25.7474C14.148 28.2104 13.3512 30.4944 12.1651 32.6761C12.0926 32.804 11.9478 32.8977 11.8301 33C11.7214 33 11.6128 33 11.4951 33C10.9337 32.4972 10.2546 32.1989 9.53027 31.9432C8.34416 31.5171 7.52022 30.7075 7.11278 29.5655C6.83209 28.7644 6.39749 28.0911 5.61882 27.6479C5.32908 27.486 5.00313 27.3752 4.67717 27.2644C3.38241 26.8212 2.49509 25.986 2.03332 24.7673C1.84318 24.2645 1.61682 23.7873 1.22749 23.3867C0.856261 23.0032 0.946804 22.6793 1.44479 22.4407C4.11581 21.1964 6.89547 20.3868 9.91961 20.4806C9.94677 20.4806 9.98299 20.472 10.0645 20.4635C9.97393 20.3442 9.9015 20.2504 9.82001 20.1567C8.2174 18.2392 8.30794 15.316 10.0826 13.5433C11.4136 12.2223 12.7808 10.9269 14.1842 9.67411C16.2667 7.82475 19.2365 7.73952 21.4819 9.40139C21.5363 9.43548 21.5906 9.46957 21.6992 9.54628C21.6992 9.14572 21.6902 8.80483 21.6992 8.45541C21.7988 5.93277 22.6137 3.59762 23.8089 1.36475C24.0352 0.955669 24.3884 0.878967 24.7505 1.1943C25.1942 1.57781 25.7194 1.79939 26.2717 1.98688C27.5574 2.42153 28.4537 3.2482 28.8884 4.46691C29.1781 5.26802 29.6217 5.94129 30.4004 6.36741C30.6992 6.53786 31.0433 6.63161 31.3783 6.75092C32.5734 7.17704 33.4427 7.93554 33.8773 9.0605C34.1398 9.73377 34.4658 10.3559 34.9909 10.8758C35 10.978 35 11.0803 35 11.1911ZM17.996 24.7503C19.1369 24.7247 20.1781 24.4009 21.0021 23.6424C22.3602 22.3981 23.7093 21.1538 25.0131 19.8669C26.6519 18.2477 26.6519 15.7762 25.0222 14.1569C23.7093 12.8615 22.3602 11.5917 20.984 10.3559C19.3361 8.873 16.6651 8.88153 15.0172 10.3559C13.65 11.5831 12.3099 12.8445 11.0061 14.1313C9.34919 15.7677 9.34919 18.2306 10.9971 19.8669C12.3009 21.1538 13.65 22.4066 15.0081 23.6424C15.8321 24.3923 16.8552 24.7162 17.996 24.7503ZM2.47698 23.1055C2.68523 23.5657 2.89348 23.9747 3.05645 24.4009C3.41863 25.3554 4.10675 25.9946 5.12083 26.3269C5.47395 26.4463 5.83612 26.5656 6.15302 26.7445C7.13994 27.307 7.79185 28.1166 8.12686 29.1564C8.38038 29.949 8.93269 30.52 9.7023 30.8864C10.2818 31.1677 10.9065 31.3637 11.5222 31.6023C12.7989 29.5314 13.6952 24.844 13.0614 23.506C13.0433 23.5316 13.0162 23.5571 13.0071 23.5827C12.1741 25.2361 11.0695 26.7275 9.91961 28.1934C9.67514 28.5087 9.35824 28.5769 9.09567 28.3894C8.82404 28.1933 8.80593 27.9121 9.04134 27.5883C9.25865 27.2985 9.485 27.0173 9.7023 26.7275C10.644 25.4491 11.5765 24.1793 12.2013 22.7305C12.2375 22.6453 12.2103 22.543 12.2194 22.4492C12.1198 22.4578 12.0021 22.4322 11.9206 22.4663C11.4045 22.6964 10.8884 22.935 10.3723 23.1736C10.146 23.2759 9.93772 23.3185 9.72041 23.1736C9.39446 22.9521 9.43973 22.5004 9.82001 22.2958C10.2456 22.0657 10.6892 21.8612 11.2053 21.6055C8.03632 21.2135 5.20232 21.9635 2.47698 23.1055ZM22.9125 10.5434C22.9759 10.4752 23.0031 10.4582 23.0121 10.4326C23.8451 8.80483 24.9226 7.32192 26.0544 5.86459C26.1268 5.77084 26.1992 5.65153 26.2988 5.61744C26.4618 5.55778 26.6791 5.49812 26.8149 5.55778C26.9688 5.62596 27.1137 5.81345 27.1409 5.97538C27.159 6.12026 27.0503 6.30775 26.9417 6.45264C26.4256 7.16852 25.8552 7.85031 25.3843 8.58324C24.832 9.44401 24.3431 10.3389 23.8361 11.2337C23.7908 11.3189 23.8179 11.4383 23.8089 11.5405C23.9175 11.532 24.0443 11.549 24.1348 11.5064C24.6147 11.2934 25.1127 11.1144 25.5564 10.8502C26.8059 10.1002 28.0282 9.31617 29.2596 8.54915C29.6127 8.32757 29.9115 8.34461 30.1107 8.60881C30.3008 8.85596 30.2374 9.14572 29.9205 9.36731C28.5171 10.3474 27.0775 11.2763 25.5292 12.0433C25.321 12.1456 25.1037 12.2394 24.8954 12.3416C27.9739 12.7933 30.8079 12.0433 33.5332 10.9099C33.325 10.4326 33.1167 10.0065 32.9447 9.57184C32.5825 8.65994 31.9215 8.03781 30.9527 7.69691C30.5815 7.56907 30.2012 7.44976 29.8662 7.25374C28.8793 6.69126 28.2364 5.88163 27.8924 4.8419C27.5936 3.94704 26.9417 3.34195 26.0181 2.98401C25.5202 2.79651 25.0222 2.6005 24.4789 2.39596C23.2837 4.94417 22.487 7.61169 22.9125 10.5434Z" fill="#FCF3E6" stroke="#FCF3E6" stroke-width="0.3"/>
</svg>
