<svg width="33" height="33" viewBox="0 0 33 33" fill="none" xmlns="http://www.w3.org/2000/svg">
<path d="M6.71611 1.00232L6.86511 1.02672M6.86511 1.02672C7.2627 1.13393 7.49864 1.5452 7.39211 1.94531L7.19921 2.66979C8.34735 6.08533 8.72852 8.51758 8.34273 9.96652C7.76405 12.1399 5.76673 13.1543 3.7788 12.6183C1.79088 12.0822 0.565132 10.1987 1.14382 8.02531C1.5296 6.57636 3.06814 4.66177 5.75943 2.28154L5.95233 1.55707C6.05886 1.15695 6.46753 0.919509 6.86511 1.02672ZM28.0208 22.369C28.3119 22.0761 28.7837 22.0761 29.0748 22.369C29.3659 22.6619 29.3659 23.1368 29.0748 23.4297L28.5478 23.9601C27.8451 27.4958 26.9668 29.7939 25.9128 30.8546C24.3318 32.4457 22.0981 32.3192 20.6428 30.8546C19.1876 29.3901 19.0619 27.1422 20.6428 25.5511C21.6968 24.4904 23.9805 23.6065 27.4938 22.8994L28.0208 22.369ZM2.14589 22.0694C2.3517 21.7106 2.80751 21.5877 3.16397 21.7948L3.80941 22.1699C7.38487 21.9378 9.81804 22.1968 11.1089 22.9468C13.0452 24.0719 13.5019 26.2759 12.4729 28.0696C11.4439 29.8633 9.31879 30.5673 7.38248 29.4423C6.09161 28.6922 4.65215 26.7011 3.06412 23.4689L2.41868 23.0939C2.06222 22.8868 1.94009 22.4281 2.14589 22.0694ZM17.2465 6.8225C17.6582 6.8225 17.9918 7.1583 17.9918 7.57253V8.32255C19.9793 11.3227 20.973 13.5728 20.973 15.0728C20.973 17.3229 19.3046 18.823 17.2465 18.823C15.1885 18.823 13.5201 17.3229 13.5201 15.0728C13.5201 13.5728 14.5138 11.3227 16.5013 8.32255V7.57253C16.5013 7.1583 16.8349 6.8225 17.2465 6.8225ZM27.2905 4.85001C29.2785 4.31395 31.2758 5.32834 31.8545 7.50176C32.2402 8.9507 31.8591 11.3829 30.7109 14.7985L30.9038 15.523C31.0104 15.9231 30.7744 16.3344 30.3768 16.4416C29.9793 16.5488 29.5706 16.3113 29.464 15.9112L29.2712 15.1867C26.5799 12.8065 25.0413 10.8919 24.6555 9.44298C24.0769 7.26956 25.3026 5.38606 27.2905 4.85001Z" stroke="#FCF3E6" stroke-width="1.2" stroke-linecap="round"/>
</svg>
