<svg width="15" height="19" viewBox="0 0 15 19" fill="none" xmlns="http://www.w3.org/2000/svg">
<path fill-rule="evenodd" clip-rule="evenodd" d="M3.91957 4.24342e-07H11.0804C11.6146 -1.08376e-05 12.0604 -2.01489e-05 12.4247 0.0313922C12.8046 0.0641543 13.1612 0.134994 13.4985 0.316385C14.0159 0.594684 14.4366 1.03875 14.7003 1.58495C14.8721 1.94094 14.9392 2.31741 14.9703 2.7184C15 3.10287 15 3.57348 15 4.1373V5.89048C15 6.4543 15 6.92491 14.9703 7.30937C14.9392 7.71036 14.8721 8.08683 14.7003 8.44283C14.4366 8.98903 14.0159 9.4331 13.4985 9.7114C13.1612 9.89279 12.8046 9.96363 12.4247 9.99639C12.0604 10.0278 11.6146 10.0278 11.0805 10.0278H3.91955C3.3854 10.0278 2.93956 10.0278 2.57533 9.99639C2.19545 9.96363 1.83879 9.89279 1.50153 9.7114C0.984081 9.4331 0.563385 8.98903 0.299733 8.44283C0.127889 8.08683 0.0607778 7.71036 0.02974 7.30937C-1.90884e-05 6.92491 -1.02672e-05 6.45429 4.02008e-07 5.89046V4.13732C-1.02672e-05 3.57349 -1.90884e-05 3.10287 0.02974 2.7184C0.0607778 2.31741 0.127889 1.94094 0.299733 1.58495C0.563385 1.03875 0.984081 0.594684 1.50153 0.316385C1.83879 0.134994 2.19545 0.0641543 2.57533 0.0313922C2.93956 -2.01489e-05 3.38541 -1.08376e-05 3.91957 4.24342e-07ZM2.69748 1.60947C2.41035 1.63423 2.27307 1.67844 2.18251 1.72715C1.94731 1.85364 1.75608 2.05549 1.63624 2.30376C1.5901 2.39936 1.54822 2.54426 1.52476 2.84734C1.50058 3.15966 1.5 3.56522 1.5 4.16945V5.85833C1.5 6.46256 1.50058 6.86812 1.52476 7.18044C1.54822 7.48352 1.5901 7.62842 1.63624 7.72402C1.75608 7.97229 1.94731 8.17414 2.18251 8.30063C2.27307 8.34934 2.41036 8.39355 2.69748 8.41831C2.99336 8.44383 3.37757 8.44445 3.95 8.44445H11.05C11.6224 8.44445 12.0066 8.44383 12.3025 8.41831C12.5896 8.39355 12.7269 8.34934 12.8175 8.30063C13.0527 8.17414 13.2439 7.97229 13.3638 7.72402C13.4099 7.62842 13.4518 7.48352 13.4752 7.18044C13.4994 6.86812 13.5 6.46256 13.5 5.85833V4.16945C13.5 3.56522 13.4994 3.15966 13.4752 2.84734C13.4518 2.54426 13.4099 2.39936 13.3638 2.30376C13.2439 2.05549 13.0527 1.85364 12.8175 1.72715C12.7269 1.67844 12.5896 1.63423 12.3025 1.60947C12.0066 1.58395 11.6224 1.58333 11.05 1.58333H3.95C3.37757 1.58333 2.99336 1.58395 2.69748 1.60947ZM7.59636e-07 13.9861C7.59636e-07 13.5489 0.335787 13.1944 0.750001 13.1944H14.25C14.6642 13.1944 15 13.5489 15 13.9861C15 14.4233 14.6642 14.7778 14.25 14.7778H0.750001C0.335787 14.7778 7.59636e-07 14.4233 7.59636e-07 13.9861ZM7.59636e-07 18.2083C7.59636e-07 17.7711 0.335787 17.4167 0.750001 17.4167H10.25C10.6642 17.4167 11 17.7711 11 18.2083C11 18.6456 10.6642 19 10.25 19H0.750001C0.335787 19 7.59636e-07 18.6456 7.59636e-07 18.2083Z" fill="#1A73E8"/>
</svg>
