<svg width="21" height="38" viewBox="0 0 21 38" fill="none" xmlns="http://www.w3.org/2000/svg">
<path fill-rule="evenodd" clip-rule="evenodd" d="M0.197266 0.699219H9.30422C10.9257 0.699219 12.4807 1.3791 13.6273 2.58929C14.7738 3.79949 15.4179 5.44086 15.4179 7.15234V7.31448C15.4179 9.15478 15.9834 10.9454 17.0295 12.4177L18.104 13.9297C19.7281 16.2155 19.8794 19.3117 18.4867 21.7617L17.2605 23.9188C16.0548 26.0398 15.4179 28.4669 15.4179 30.9404C15.4179 33.1094 13.9069 34.9484 11.8726 35.2551L2.88327 36.6106V29.8332C2.88327 28.2644 3.42451 26.7544 4.39785 25.5815L4.701 25.2416C5.77345 24.1096 6.11372 22.4172 5.56927 20.923L5.50959 20.7592C5.02197 19.421 4.9953 17.9493 5.42626 16.599L5.56927 16.1978C6.11103 14.8254 5.81456 13.2436 4.81855 12.1923L4.67394 12.0397C3.52739 10.8295 2.88327 9.18809 2.88327 7.47662V3.53433C2.88327 1.96854 1.6807 0.699219 0.197266 0.699219ZM9.15061 32.8305C10.634 32.8305 11.8366 31.5612 11.8366 29.9954C11.8366 28.4296 10.634 27.1603 9.15061 27.1603C7.66717 27.1603 6.46461 28.4296 6.46461 29.9954C6.46461 31.5612 7.66717 32.8305 9.15061 32.8305ZM11.8366 22.4351C13.8145 22.4351 15.4179 20.7426 15.4179 18.6549C15.4179 16.5672 13.8145 14.8748 11.8366 14.8748C9.85869 14.8748 8.25527 16.5672 8.25527 18.6549C8.25527 20.7426 9.85869 22.4351 11.8366 22.4351ZM9.15061 11.0946C10.634 11.0946 11.8366 9.8253 11.8366 8.25952C11.8366 6.69373 10.634 5.4244 9.15061 5.4244C7.66717 5.4244 6.46461 6.69373 6.46461 8.25952C6.46461 9.8253 7.66717 11.0946 9.15061 11.0946Z" stroke="#FCF3E6" stroke-width="1.2" stroke-linecap="round"/>
</svg>
