<svg width="25" height="23" viewBox="0 0 25 23" fill="none" xmlns="http://www.w3.org/2000/svg">
<path d="M3.67285 19.6851H5.73926V18.2363H3.65039C3.14876 18.2363 2.77441 18.109 2.52734 17.8545C2.28027 17.5999 2.15674 17.2218 2.15674 16.7202V6.63525C2.15674 6.13363 2.28027 5.75928 2.52734 5.51221C2.77441 5.25765 3.14876 5.13037 3.65039 5.13037H21.3271C21.8213 5.13037 22.1956 5.25765 22.4502 5.51221C22.7048 5.75928 22.832 6.13363 22.832 6.63525V16.7202C22.832 17.2218 22.7048 17.5999 22.4502 17.8545C22.1956 18.109 21.8213 18.2363 21.3271 18.2363H19.3506V19.6851H21.3159C22.3192 19.6851 23.0791 19.4342 23.5957 18.9326C24.1198 18.4235 24.3818 17.6636 24.3818 16.6528V6.70264C24.3818 5.69189 24.1198 4.93571 23.5957 4.43408C23.0791 3.92497 22.3192 3.67041 21.3159 3.67041H3.67285C2.71452 3.67041 1.96208 3.92497 1.41553 4.43408C0.868978 4.93571 0.595703 5.69189 0.595703 6.70264V16.6528C0.595703 17.6636 0.857747 18.4235 1.38184 18.9326C1.90592 19.4342 2.6696 19.6851 3.67285 19.6851ZM6.90723 22.8521H18.0703C18.7591 22.8521 19.2757 22.6873 19.6201 22.3579C19.9645 22.0285 20.1367 21.5044 20.1367 20.7856V12.228C20.1367 11.5093 19.9645 10.9889 19.6201 10.667C19.2757 10.3376 18.7591 10.1729 18.0703 10.1729H6.90723C6.24089 10.1729 5.72803 10.3376 5.36865 10.667C5.01676 10.9889 4.84082 11.5093 4.84082 12.228V20.7856C4.84082 21.5044 5.01302 22.0285 5.35742 22.3579C5.70182 22.6873 6.21842 22.8521 6.90723 22.8521ZM7.35645 21.3921C7.03451 21.3921 6.79492 21.3135 6.6377 21.1562C6.48047 21.0065 6.40186 20.7632 6.40186 20.4263V12.5874C6.40186 12.2505 6.48047 12.0072 6.6377 11.8574C6.79492 11.7077 7.03451 11.6328 7.35645 11.6328H17.6211C17.9505 11.6328 18.1901 11.7077 18.3398 11.8574C18.4971 12.0072 18.5757 12.2505 18.5757 12.5874V20.4263C18.5757 20.7632 18.4971 21.0065 18.3398 21.1562C18.1901 21.3135 17.9505 21.3921 17.6211 21.3921H7.35645ZM4.78467 4.54639H6.28955V2.90674C6.28955 2.44255 6.40186 2.09814 6.62646 1.87354C6.85107 1.64893 7.19922 1.53662 7.6709 1.53662H17.3179C17.7821 1.53662 18.1265 1.64893 18.3511 1.87354C18.5832 2.09814 18.6992 2.44255 18.6992 2.90674V4.52393H20.2041V3.01904C20.2041 2.01579 19.957 1.28206 19.4629 0.817871C18.9762 0.353678 18.2537 0.121582 17.2954 0.121582H7.69336C6.77995 0.121582 6.06494 0.353678 5.54834 0.817871C5.03923 1.28206 4.78467 2.01579 4.78467 3.01904V4.54639ZM8.71533 15.249H16.2959C16.4681 15.249 16.6104 15.1929 16.7227 15.0806C16.8424 14.9608 16.9023 14.8148 16.9023 14.6426C16.9023 14.4779 16.8424 14.3394 16.7227 14.2271C16.6104 14.1073 16.4681 14.0474 16.2959 14.0474H8.71533C8.53564 14.0474 8.3859 14.1073 8.26611 14.2271C8.15381 14.3394 8.09766 14.4779 8.09766 14.6426C8.09766 14.8148 8.15381 14.9608 8.26611 15.0806C8.3859 15.1929 8.53564 15.249 8.71533 15.249ZM8.71533 18.9663H16.2959C16.4681 18.9663 16.6104 18.9102 16.7227 18.7979C16.8424 18.6781 16.9023 18.5358 16.9023 18.3711C16.9023 18.1989 16.8424 18.0566 16.7227 17.9443C16.6104 17.8245 16.4681 17.7646 16.2959 17.7646H8.71533C8.53564 17.7646 8.3859 17.8245 8.26611 17.9443C8.15381 18.0566 8.09766 18.1989 8.09766 18.3711C8.09766 18.5358 8.15381 18.6781 8.26611 18.7979C8.3859 18.9102 8.53564 18.9663 8.71533 18.9663ZM17.5874 7.69092C17.5874 8.05778 17.7184 8.36849 17.9805 8.62305C18.2425 8.87012 18.5532 8.99365 18.9126 8.99365C19.257 8.99365 19.5565 8.86637 19.811 8.61182C20.0731 8.35726 20.2041 8.05029 20.2041 7.69092C20.2041 7.33903 20.0731 7.03581 19.811 6.78125C19.5565 6.51921 19.257 6.38818 18.9126 6.38818C18.5532 6.38818 18.2425 6.51921 17.9805 6.78125C17.7184 7.03581 17.5874 7.33903 17.5874 7.69092Z" fill="black"/>
</svg>
