<svg width="21" height="22" viewBox="0 0 21 22" fill="none" xmlns="http://www.w3.org/2000/svg">
<path d="M0.19043 9.30811C0.19043 10.4611 0.407552 11.543 0.841797 12.5537C1.27604 13.5645 1.875 14.4554 2.63867 15.2266C3.40983 15.9977 4.30078 16.6004 5.31152 17.0347C6.32227 17.4689 7.40413 17.686 8.55713 17.686C9.493 17.686 10.3765 17.5438 11.2075 17.2593C12.0386 16.9673 12.8022 16.5667 13.4985 16.0576L18.8442 21.4258C18.9565 21.5306 19.0838 21.6092 19.2261 21.6616C19.3758 21.7215 19.5256 21.7515 19.6753 21.7515C19.8999 21.7515 20.0983 21.6991 20.2705 21.5942C20.4427 21.4969 20.5775 21.3584 20.6748 21.1787C20.7721 21.0065 20.8208 20.8081 20.8208 20.5835C20.8208 20.4338 20.7909 20.2878 20.731 20.1455C20.6785 20.0107 20.5999 19.8872 20.4951 19.7749L15.1719 14.4292C15.7259 13.7254 16.1602 12.9393 16.4746 12.0708C16.7891 11.1948 16.9463 10.2739 16.9463 9.30811C16.9463 8.14762 16.7292 7.06201 16.2949 6.05127C15.8607 5.04053 15.258 4.15332 14.4868 3.38965C13.7157 2.61849 12.8247 2.01579 11.814 1.58154C10.8032 1.13981 9.71761 0.918945 8.55713 0.918945C7.40413 0.918945 6.32227 1.13981 5.31152 1.58154C4.30078 2.01579 3.40983 2.61849 2.63867 3.38965C1.875 4.15332 1.27604 5.04053 0.841797 6.05127C0.407552 7.06201 0.19043 8.14762 0.19043 9.30811ZM1.81885 9.30811C1.81885 8.37223 1.99479 7.5 2.34668 6.69141C2.69857 5.87533 3.18148 5.16032 3.79541 4.54639C4.41683 3.92497 5.13184 3.44206 5.94043 3.09766C6.75651 2.74577 7.62874 2.56982 8.55713 2.56982C9.493 2.56982 10.3652 2.74577 11.1738 3.09766C11.9899 3.44206 12.7049 3.92497 13.3188 4.54639C13.9403 5.16032 14.4232 5.87533 14.7676 6.69141C15.1195 7.5 15.2954 8.37223 15.2954 9.30811C15.2954 10.2365 15.1195 11.1087 14.7676 11.9248C14.4232 12.7334 13.9403 13.4484 13.3188 14.0698C12.7049 14.6838 11.9899 15.1667 11.1738 15.5186C10.3652 15.863 9.493 16.0352 8.55713 16.0352C7.62874 16.0352 6.75651 15.863 5.94043 15.5186C5.13184 15.1667 4.41683 14.6838 3.79541 14.0698C3.18148 13.4484 2.69857 12.7334 2.34668 11.9248C1.99479 11.1087 1.81885 10.2365 1.81885 9.30811Z" fill="black"/>
</svg>
