<svg width="22" height="23" viewBox="0 0 22 23" fill="none" xmlns="http://www.w3.org/2000/svg">
<path d="M20.1667 9.66667H12.8333V2.33333C12.8333 1.8471 12.6402 1.38079 12.2964 1.03697C11.9525 0.693155 11.4862 0.5 11 0.5C10.5138 0.5 10.0475 0.693155 9.70364 1.03697C9.35982 1.38079 9.16667 1.8471 9.16667 2.33333V9.66667H1.83333C1.3471 9.66667 0.880788 9.85982 0.536971 10.2036C0.193155 10.5475 0 11.0138 0 11.5C0 11.9862 0.193155 12.4525 0.536971 12.7964C0.880788 13.1402 1.3471 13.3333 1.83333 13.3333H9.16667V20.6667C9.16667 21.1529 9.35982 21.6192 9.70364 21.963C10.0475 22.3068 10.5138 22.5 11 22.5C11.4862 22.5 11.9525 22.3068 12.2964 21.963C12.6402 21.6192 12.8333 21.1529 12.8333 20.6667V13.3333H20.1667C20.6529 13.3333 21.1192 13.1402 21.463 12.7964C21.8068 12.4525 22 11.9862 22 11.5C22 11.0138 21.8068 10.5475 21.463 10.2036C21.1192 9.85982 20.6529 9.66667 20.1667 9.66667Z" fill="black"/>
</svg>
