<svg width="38" height="31" viewBox="0 0 38 31" fill="none" xmlns="http://www.w3.org/2000/svg">
<path d="M12.9637 0.666992C16.8926 0.666992 20.368 5.12173 22.4832 10.0113C24.0384 7.59701 26.0411 5.8059 28.226 5.8059C33.1844 5.8059 37.2039 15.0294 37.2039 19.8211C37.2039 24.6128 33.1844 28.4972 28.226 28.4972C25.7969 28.4972 23.5931 27.5649 21.9769 26.0504C19.8393 28.5629 16.5952 30.1657 12.9637 30.1657M12.9637 0.666992C8.39301 0.666992 4.43599 6.69598 2.52052 12.4247L2.24214 13.3028C1.63105 15.3422 1.29248 17.3011 1.29248 18.8868C1.29248 25.1159 6.51786 30.1657 12.9637 30.1657M12.9637 0.666992C17.5344 0.666992 21.4914 6.69598 23.4069 12.4247L23.6852 13.3028C24.2963 15.3422 24.6349 17.3011 24.6349 18.8868C24.6349 25.1159 19.4095 30.1657 12.9637 30.1657" stroke="#FCF3E6" stroke-width="1.2" stroke-linecap="round"/>
</svg>
