<svg width="24" height="24" viewBox="0 0 24 24" fill="none" xmlns="http://www.w3.org/2000/svg">
<g clip-path="url(#clip0_1_4983)">
<path d="M11.0078 2.57812L11.0008 18.0161C11.0008 18.2813 11.1061 18.5357 11.2937 18.7232C11.4812 18.9108 11.7356 19.0161 12.0008 19.0161C12.266 19.0161 12.5204 18.9108 12.7079 18.7232C12.8954 18.5357 13.0008 18.2813 13.0008 18.0161L13.0078 2.59512L15.9198 5.50812C16.1073 5.69559 16.3616 5.8009 16.6268 5.8009C16.8919 5.8009 17.1463 5.69559 17.3338 5.50812C17.5213 5.32059 17.6266 5.06628 17.6266 4.80112C17.6266 4.53595 17.5213 4.28164 17.3338 4.09412L14.1228 0.879115C13.8442 0.600336 13.5134 0.379186 13.1493 0.228301C12.7852 0.0774169 12.3949 -0.000244141 12.0008 -0.000244141C11.6067 -0.000244141 11.2164 0.0774169 10.8523 0.228301C10.4882 0.379186 10.1574 0.600336 9.87879 0.879115L6.66779 4.09112C6.48032 4.27864 6.375 4.53295 6.375 4.79812C6.375 5.06328 6.48032 5.31759 6.66779 5.50512C6.85531 5.69259 7.10962 5.7979 7.37479 5.7979C7.63995 5.7979 7.89426 5.69259 8.08179 5.50512L11.0078 2.57812Z" fill="#FCF3E6"/>
<path d="M22 16.9994V20.9994C22 21.2646 21.8946 21.519 21.7071 21.7065C21.5196 21.894 21.2652 21.9994 21 21.9994H3C2.73478 21.9994 2.48043 21.894 2.29289 21.7065C2.10536 21.519 2 21.2646 2 20.9994V16.9994C2 16.7342 1.89464 16.4798 1.70711 16.2923C1.51957 16.1047 1.26522 15.9994 1 15.9994C0.734784 15.9994 0.48043 16.1047 0.292893 16.2923C0.105357 16.4798 0 16.7342 0 16.9994L0 20.9994C0 21.795 0.31607 22.5581 0.87868 23.1207C1.44129 23.6833 2.20435 23.9994 3 23.9994H21C21.7956 23.9994 22.5587 23.6833 23.1213 23.1207C23.6839 22.5581 24 21.795 24 20.9994V16.9994C24 16.7342 23.8946 16.4798 23.7071 16.2923C23.5196 16.1047 23.2652 15.9994 23 15.9994C22.7348 15.9994 22.4804 16.1047 22.2929 16.2923C22.1054 16.4798 22 16.7342 22 16.9994Z" fill="#FCF3E6"/>
</g>
<defs>
<clipPath id="clip0_1_4983">
<rect width="24" height="24" fill="white"/>
</clipPath>
</defs>
</svg>
