<svg width="29" height="32" viewBox="0 0 29 32" fill="none" xmlns="http://www.w3.org/2000/svg">
<path d="M19.4381 1C19.5096 1.02984 19.5811 1.06565 19.6525 1.08953C20.6772 1.47747 21.3146 2.19367 21.5112 3.28588C21.5171 3.32169 21.529 3.36347 21.5409 3.39928C21.5469 3.41718 21.5588 3.43509 21.5826 3.47687C22.4286 3.61414 23.197 3.97224 23.8285 4.59295C24.454 5.20769 24.8352 5.95374 24.9782 6.80124C27.0751 7.88152 28.2069 9.54669 27.9686 11.9161C27.7304 14.2736 26.247 15.6404 24.0489 16.3446C24.9722 17.3891 25.145 18.6067 24.9782 19.9436C24.865 19.9436 24.7578 19.9555 24.6565 19.9436C23.7808 19.8242 22.9051 19.8063 22.0235 19.8958C20.9333 20.0032 19.8789 20.2241 18.9139 20.7732C17.6033 21.5192 16.9361 22.6651 16.8051 24.1453C16.6859 25.4822 16.9838 26.7594 17.365 28.0247C17.4603 28.3351 17.5497 28.6514 17.5735 28.9737C17.6271 29.6183 17.371 30.1674 16.8825 30.5732C15.9055 31.3909 14.7975 31.5819 13.6121 31.0984C12.927 30.8179 12.2658 30.4837 11.5986 30.1554C10.2403 29.487 8.98935 28.6633 7.94686 27.5472C7.28562 26.843 6.73757 26.0611 6.261 25.2196C6.19548 25.1002 6.12399 24.9809 6.04655 24.8496C5.0815 24.7182 4.25942 24.2945 3.64584 23.5305C3.0263 22.7606 2.75228 21.8892 2.95482 20.8746C2.85355 20.7791 2.74632 20.6896 2.65101 20.5941C1.6383 19.5914 1.02472 18.3739 1.00089 16.9176C0.977064 15.6702 1.4298 14.6138 2.46634 13.8558C2.49016 13.8379 2.51399 13.82 2.56165 13.7842C2.50804 13.6828 2.46634 13.5873 2.41868 13.4977C1.9302 12.5667 1.65617 11.5879 1.70979 10.5315C1.7634 9.36167 2.15061 8.34705 3.10375 7.601C3.13353 7.57713 3.16927 7.55922 3.19906 7.53535C3.12162 7.21306 3.03822 6.91464 2.9846 6.61622C2.82972 5.79259 2.84759 4.98089 3.13353 4.1871C3.45521 3.29185 4.02114 2.62936 4.96236 2.34885C5.52232 2.18173 6.07633 2.22351 6.62439 2.40853C6.73757 2.44434 6.8448 2.48612 6.96394 2.52193C7.0116 2.44434 7.05925 2.38466 7.095 2.31304C7.43455 1.71023 7.91708 1.26858 8.59618 1.05968C8.63193 1.04775 8.66171 1.01791 8.6915 1C9.06679 1 9.44209 1 9.81739 1C10.0676 1.1134 10.3237 1.20889 10.5561 1.34616C11.3484 1.79379 11.8845 2.47418 12.2836 3.27991C12.3313 3.37541 12.3789 3.46493 12.4266 3.56043C12.5934 3.4709 12.5934 3.4709 12.6589 3.23813C12.9508 2.15189 13.6478 1.44763 14.7022 1.08356C14.7737 1.05968 14.8452 1.02984 14.9226 1C15.3575 1 15.7924 1 16.2272 1C16.5549 1.14324 16.8825 1.28051 17.2221 1.42375C17.514 1.28648 17.8237 1.14324 18.1275 1C18.5684 1 19.0032 1 19.4381 1ZM17.3055 2.8681C17.1148 2.70098 17.0076 2.59952 16.8944 2.50403C16.257 1.95494 15.5362 1.81766 14.7677 2.16383C14.0052 2.50999 13.618 3.1307 13.6001 3.97224C13.6001 4.12145 13.6001 4.26469 13.6001 4.4318C13.4155 4.45568 13.2606 4.47955 13.1057 4.49149C11.4854 4.61682 10.3237 6.19247 10.6752 7.78602C10.7229 7.98895 10.7705 8.19187 10.8241 8.4306C10.5978 8.44851 10.3833 8.46641 10.1689 8.47835C9.4123 8.52013 8.74511 8.79467 8.18514 9.30795C7.06521 10.3345 6.80906 11.9281 7.54178 13.2709C7.61326 13.4082 7.68475 13.5455 7.76219 13.6887C7.63709 13.7962 7.52986 13.8857 7.42264 13.9752C6.10612 15.1331 6.47546 17.1623 8.11366 17.783C8.22089 17.8248 8.32811 17.8666 8.44726 17.9143C8.44726 18.0397 8.44726 18.1471 8.44726 18.2545C8.47109 18.9588 8.45321 19.663 8.51874 20.3613C8.69745 22.2533 9.32295 24.002 10.3118 25.6254C11.2233 27.1175 12.3253 28.4664 13.475 29.7794C13.7372 30.0838 14.0827 30.2449 14.4758 30.3166C14.5652 30.3345 14.6605 30.3166 14.7499 30.3166C14.3805 29.2184 13.9874 28.162 13.6657 27.0817C13.344 25.9955 13.0878 24.8854 12.7959 23.7514C12.7423 23.7275 12.653 23.6917 12.5577 23.6559C11.8666 23.3813 11.3126 22.9337 10.8837 22.3309C10.8182 22.2414 10.7586 22.1519 10.7169 22.0504C10.6097 21.8057 10.699 21.5431 10.9254 21.4118C11.1399 21.2864 11.402 21.3282 11.5688 21.5252C11.6283 21.5908 11.67 21.6744 11.7237 21.746C11.956 22.0683 12.236 22.3369 12.6589 22.5577C12.3015 19.7765 12.3909 17.0788 13.2665 14.4407C13.1712 14.3751 13.0938 14.3154 13.0163 14.2617C11.7713 13.3187 11.2769 12.0474 11.4258 10.5136C11.4556 10.1793 11.6939 9.97641 11.9679 10.0062C12.2062 10.0301 12.4743 10.2151 12.4326 10.615C12.4147 10.8 12.4147 10.991 12.4266 11.182C12.4743 11.9877 12.7602 12.6801 13.3678 13.2292C13.4453 13.3008 13.5346 13.3545 13.6478 13.4381C14.6248 11.2536 16.0247 9.46313 18.0084 8.17396C18.0441 7.44582 18.2884 6.80721 18.6935 6.22231C18.896 5.93583 19.1879 5.87615 19.4381 6.04923C19.6764 6.21634 19.7121 6.49686 19.5513 6.78334C19.4143 7.02207 19.2951 7.27274 19.176 7.52341C19.1462 7.58907 19.1462 7.66665 19.1343 7.74424C19.1939 7.75618 19.2236 7.76215 19.2475 7.76215C20.0398 7.72634 20.7725 7.94717 21.4635 8.30527C21.5171 8.33511 21.5707 8.36495 21.6124 8.40076C21.7792 8.5261 21.8328 8.70515 21.7971 8.9021C21.7614 9.10503 21.6303 9.22439 21.4337 9.29005C21.2788 9.34376 21.1478 9.27811 21.0108 9.2244C20.7129 9.09906 20.4091 8.96776 20.0993 8.87226C19.4977 8.69918 18.9377 8.76483 18.4075 9.1289C17.8773 9.49894 17.371 9.89285 16.9182 10.3464C16.8646 10.4002 16.8289 10.4598 16.7753 10.5315C16.8348 10.5434 16.8646 10.5553 16.8944 10.5553C17.508 10.5016 18.1216 10.5374 18.7232 10.6449C19.2356 10.7404 19.7419 10.8896 20.2423 11.0209C20.4091 11.0626 20.5461 11.1641 20.6116 11.3372C20.6831 11.5282 20.6653 11.7132 20.5223 11.8624C20.3614 12.0415 20.1649 12.0773 19.9266 11.9937C18.9556 11.6416 17.9488 11.5222 16.9242 11.5759C16.5132 11.5998 16.0962 11.6356 15.709 11.755C14.5473 13.4261 13.898 15.2703 13.6061 17.2638C13.6597 17.2578 13.6835 17.2638 13.7014 17.2578C13.7729 17.222 13.8444 17.1862 13.9099 17.1504C14.6605 16.7624 15.4707 16.5953 16.3047 16.5297C16.5132 16.5118 16.6978 16.5714 16.8229 16.7565C17.0433 17.0728 16.8706 17.4727 16.4715 17.5443C16.2213 17.592 15.9591 17.592 15.709 17.6398C15.0358 17.7532 14.4043 17.9561 13.8682 18.4037C13.5882 18.6365 13.4333 18.911 13.4393 19.299C13.4453 20.5583 13.5406 21.8117 13.7491 23.0531C14.1363 25.3986 14.8392 27.6487 15.7209 29.851C15.7507 29.9286 15.7924 30.0002 15.8341 30.0719C16.5012 29.7138 16.6859 29.2661 16.4774 28.5798C16.4059 28.353 16.3285 28.1262 16.263 27.8994C15.8817 26.5446 15.6375 25.1778 15.8221 23.7693C15.977 22.5816 16.4417 21.5431 17.3055 20.7075C18.1573 19.8839 19.1939 19.4243 20.3257 19.1438C21.3861 18.8812 22.4703 18.8036 23.5604 18.8394C23.7034 18.8454 23.8463 18.8394 24.0131 18.8394C23.9655 18.356 23.8761 17.9382 23.6617 17.5503C23.3876 17.0549 22.9706 16.7445 22.4166 16.6311C22.226 16.5893 22.0235 16.5834 21.8269 16.5595C21.7018 16.5416 21.5826 16.5237 21.4814 16.5058C21.4814 16.1178 21.4814 15.7657 21.4814 15.4136C21.7554 15.3121 21.9877 15.2644 22.2618 15.3181C23.2208 15.521 24.1382 15.3658 24.9722 14.8526C26.39 13.9812 27.1406 12.7099 26.9738 11.0268C26.813 9.42135 25.9075 8.3172 24.4123 7.70843C24.2872 7.65472 24.1621 7.60697 24.0846 7.5831C23.9893 7.15934 23.9476 6.76543 23.8225 6.40733C23.4293 5.28528 22.369 4.5273 21.1776 4.47955C20.9512 4.46762 20.7308 4.47955 20.4865 4.47955C20.5044 4.21694 20.5163 4.00208 20.5282 3.78722C20.5759 3.02327 20.0993 2.37869 19.4977 2.12802C18.8007 1.84154 18.1573 1.96091 17.6093 2.48015C17.4901 2.58161 17.4186 2.71889 17.3055 2.8681ZM7.54178 4.10951C7.36307 3.99015 7.21414 3.87675 7.0533 3.78722C6.76736 3.63205 6.48737 3.45896 6.1776 3.36347C5.43297 3.12473 4.7479 3.39331 4.33091 4.04983C4.11049 4.39599 3.99135 4.78394 3.9437 5.18979C3.84838 6.00745 4.00327 6.78334 4.31899 7.53535C4.37856 7.67859 4.43813 7.82183 4.50366 7.98298C4.36665 8.0546 4.25942 8.12025 4.14028 8.17396C3.55053 8.44254 3.16332 8.9021 2.93695 9.49894C2.69866 10.1256 2.68079 10.7762 2.78802 11.4327C2.91908 12.2802 3.26459 13.0382 3.7769 13.7245C3.89008 13.8737 3.99135 14.023 4.11645 14.1901C3.86625 14.2975 3.6518 14.387 3.43734 14.4885C2.8595 14.7511 2.46038 15.1868 2.22805 15.7717C2.00764 16.3088 1.97786 16.8758 2.07317 17.4369C2.27571 18.5887 2.87142 19.5079 3.78285 20.23C3.91391 20.3315 4.04497 20.433 4.19985 20.5523C3.75903 21.3998 3.87221 22.1877 4.46196 22.9039C5.03384 23.5962 5.79635 23.9006 6.70183 23.8469C7.70858 25.9597 9.13232 27.6726 11.2352 28.7588C10.1152 27.2787 9.06679 25.7687 8.36981 24.0379C7.66688 22.2951 7.41668 20.4747 7.42264 18.6246C5.52232 17.6099 4.98619 15.1629 6.47546 13.4381C5.95719 12.1907 5.96315 10.9433 6.5946 9.72574C7.22605 8.50819 8.25663 7.79796 9.59698 7.50551C9.54336 5.9597 10.1808 4.78991 11.4615 3.95434C11.3126 3.54849 11.0922 3.20232 10.8241 2.886C10.5442 2.55774 10.2225 2.2832 9.81739 2.12205C9.19785 1.87735 8.61406 2.02656 8.1911 2.53984C7.97069 2.80244 7.83963 3.10683 7.74432 3.43509C7.67283 3.64398 7.61326 3.85884 7.54178 4.10951Z" fill="#FCF3E6" stroke="#FCF3E6" stroke-width="0.3"/>
</svg>
