<svg width="29" height="33" viewBox="0 0 29 33" fill="none" xmlns="http://www.w3.org/2000/svg">
<path d="M19.7539 4.45336L19.4843 4.54196C16.508 5.5202 14.5005 8.2666 14.5005 11.3601V6.97329C14.5005 4.50407 12.7329 2.3781 10.2774 1.89385L5.74485 1V1.93342C5.74485 4.40265 7.51241 6.52861 9.96796 7.01286L14.5005 7.90671M21.2275 9.19947C23.061 9.07568 24.8547 9.76612 26.1183 11.082C27.3029 12.3157 27.9712 13.9392 28 15.6285L27.9952 16.0194L27.9501 17.1098C27.8537 19.4397 27.4735 21.7487 26.8186 23.9872L26.5602 24.8232L25.9173 26.7961C25.1256 29.2256 23.1594 31.1071 20.6729 31.8146C19.6172 32.115 18.1787 32.0503 16.3574 31.6205L15.8512 31.4942C14.9658 31.2619 14.0343 31.2619 13.149 31.4943C11.0866 32.0356 9.47967 32.1423 8.32804 31.8146C5.84158 31.1071 3.87541 29.2256 3.08372 26.7961L2.44078 24.8232C1.6269 22.3256 1.15935 19.731 1.05086 17.1098L1.00573 16.0194C0.930059 14.1913 1.60699 12.4106 2.88271 11.082C4.14624 9.76612 5.93995 9.07568 7.77346 9.19947L8.85582 9.27255C10.4121 9.37762 12.294 10.5038 14.5016 12.651C16.545 10.6047 18.2897 9.49159 19.7358 9.31178L20.1452 9.27255L21.2275 9.19947Z" stroke="#FCF3E6" stroke-width="1.2" stroke-linecap="round"/>
</svg>
