<svg width="14" height="14" viewBox="0 0 14 14" fill="none" xmlns="http://www.w3.org/2000/svg">
<path d="M13.8292 0.170795C13.7198 0.0614351 13.5715 0 13.4168 0C13.2621 0 13.1137 0.0614351 13.0044 0.170795L7 6.17515L0.995643 0.170795C0.88625 0.0614351 0.737901 0 0.583219 0C0.428537 0 0.280188 0.0614351 0.170795 0.170795C0.0614351 0.280188 0 0.428537 0 0.583219C0 0.737901 0.0614351 0.88625 0.170795 0.995643L6.17515 7L0.170795 13.0044C0.0614351 13.1137 0 13.2621 0 13.4168C0 13.5715 0.0614351 13.7198 0.170795 13.8292C0.280188 13.9386 0.428537 14 0.583219 14C0.737901 14 0.88625 13.9386 0.995643 13.8292L7 7.82485L13.0044 13.8292C13.1137 13.9386 13.2621 14 13.4168 14C13.5715 14 13.7198 13.9386 13.8292 13.8292C13.9386 13.7198 14 13.5715 14 13.4168C14 13.2621 13.9386 13.1137 13.8292 13.0044L7.82485 7L13.8292 0.995643C13.9386 0.88625 14 0.737901 14 0.583219C14 0.428537 13.9386 0.280188 13.8292 0.170795Z" fill="#FCF3E6" fill-opacity="0.5"/>
</svg>
