<svg width="22" height="14" viewBox="0 0 22 14" fill="none" xmlns="http://www.w3.org/2000/svg">
<path d="M21.0162 3.11732C21.0162 3.11732 20.8183 1.7927 20.2087 1.21107C19.4367 0.44557 18.5737 0.441818 18.1778 0.396788C15.3433 0.20166 11.0876 0.20166 11.0876 0.20166H11.0797C11.0797 0.20166 6.82404 0.20166 3.98956 0.396788C3.59368 0.441818 2.73067 0.44557 1.95871 1.21107C1.34905 1.7927 1.15507 3.11732 1.15507 3.11732C1.15507 3.11732 0.949219 4.67459 0.949219 6.22811V7.68407C0.949219 9.23759 1.15112 10.7949 1.15112 10.7949C1.15112 10.7949 1.34905 12.1195 1.95475 12.7011C2.72671 13.4666 3.74015 13.4403 4.19145 13.5229C5.81455 13.6692 11.0837 13.7143 11.0837 13.7143C11.0837 13.7143 15.3433 13.7068 18.1778 13.5154C18.5737 13.4704 19.4367 13.4666 20.2087 12.7011C20.8183 12.1195 21.0162 10.7949 21.0162 10.7949C21.0162 10.7949 21.2181 9.24134 21.2181 7.68407V6.22811C21.2181 4.67459 21.0162 3.11732 21.0162 3.11732ZM8.98949 9.45148V4.05169L14.4645 6.76096L8.98949 9.45148Z" fill="black"/>
</svg>
